<?xml version="1.0" standalone="no"?>
<!DOCTYPE svg PUBLIC "-//W3C//DTD SVG 20010904//EN"
 "http://www.w3.org/TR/2001/REC-SVG-20010904/DTD/svg10.dtd">
<svg version="1.0" xmlns="http://www.w3.org/2000/svg"
 width="1350.000000pt" height="1293.000000pt" viewBox="0 0 1350.000000 1293.000000"
 preserveAspectRatio="xMidYMid meet">
<metadata>
Created by potrace 1.10, written by Peter Selinger 2001-2011
</metadata>
<g transform="translate(0.000000,1293.000000) scale(0.100000,-0.100000)"
fill="#000000" stroke="none">
<path d="M5600 12875 c-25 -8 -56 -15 -70 -15 -14 0 -34 -7 -44 -15 -11 -8
-28 -15 -37 -15 -19 0 -52 -15 -152 -70 -174 -94 -327 -276 -396 -470 -49
-137 -49 -334 -1 -470 38 -106 128 -232 211 -296 63 -48 167 -104 195 -104 9
0 33 -4 53 -10 20 -5 53 -12 74 -15 l37 -6 0 -284 c0 -156 -5 -329 -11 -384
-9 -88 -9 -106 6 -145 28 -74 67 -97 195 -115 30 -5 75 -13 100 -19 70 -17
160 -34 220 -42 30 -3 82 -12 115 -18 107 -20 236 -32 435 -42 107 -5 219 -12
248 -15 108 -13 493 21 642 57 25 6 63 14 85 18 38 7 56 13 138 41 17 7 49 14
70 16 48 6 53 20 47 121 -3 43 -3 183 0 311 6 272 1 261 112 261 73 0 122 17
254 88 30 16 160 149 179 182 85 151 110 235 110 370 0 127 -12 175 -75 310
-31 66 -39 78 -104 153 -124 143 -247 213 -458 262 -123 28 -334 14 -478 -31
-25 -8 -53 -14 -63 -14 -11 0 -31 -6 -45 -14 -15 -7 -44 -21 -66 -30 l-38 -17
-48 48 c-67 67 -124 113 -208 165 -28 17 -215 110 -267 132 -16 7 -47 21 -68
30 -21 9 -45 16 -55 16 -9 0 -26 7 -36 15 -11 8 -28 15 -39 15 -11 0 -40 6
-66 14 -114 35 -143 39 -396 42 -208 3 -269 1 -305 -11z m545 -89 c28 -8 70
-19 95 -26 241 -60 486 -175 673 -314 76 -57 85 -85 32 -96 -16 -4 -39 -12
-50 -18 -26 -14 -385 -188 -405 -196 -8 -3 -22 -10 -30 -15 -14 -8 -29 -15
-123 -55 -21 -9 -44 -16 -52 -16 -7 0 -26 -6 -42 -14 -47 -23 -124 -40 -305
-67 -89 -13 -103 -12 -273 20 -27 5 -63 16 -80 24 -51 26 -66 24 -86 -8 -31
-52 -25 -69 29 -83 26 -7 74 -19 107 -28 35 -10 119 -18 200 -21 138 -5 174
-1 330 38 22 6 57 14 78 18 21 5 44 14 50 20 6 6 19 11 29 11 9 0 34 7 55 16
21 9 52 23 68 30 17 7 127 60 245 117 118 57 222 107 230 111 8 3 22 10 30 15
45 26 80 41 93 41 8 0 20 6 26 14 6 8 24 16 39 19 26 5 77 21 117 39 123 53
401 79 550 51 143 -26 269 -96 369 -204 54 -58 126 -168 126 -193 0 -6 5 -17
12 -24 6 -6 14 -30 19 -54 4 -24 12 -68 17 -98 6 -35 7 -72 1 -100 -5 -25 -12
-61 -16 -80 -9 -53 -61 -159 -107 -218 -44 -57 -130 -128 -186 -154 -103 -47
-108 -48 -255 -48 -80 0 -145 3 -145 7 0 4 19 32 43 62 24 31 47 63 51 71 4 8
13 26 21 40 24 41 18 56 -26 73 -23 9 -45 14 -49 12 -4 -2 -15 -26 -25 -52
-17 -45 -68 -124 -107 -167 -16 -18 -19 -18 -58 -2 -22 9 -49 16 -60 16 -26 0
-25 19 3 62 51 79 92 217 85 293 -3 38 -5 40 -40 43 -62 5 -68 -3 -73 -103 -2
-50 -10 -102 -19 -119 -8 -17 -23 -50 -33 -72 -23 -53 -46 -69 -82 -56 -40 15
-164 49 -291 82 -25 6 -68 15 -97 20 -28 4 -57 11 -63 15 -7 4 -37 11 -68 15
-32 4 -82 13 -112 18 -203 39 -548 55 -671 32 -30 -6 -94 -15 -144 -20 -49 -5
-131 -14 -182 -21 -74 -10 -103 -10 -155 0 -35 7 -81 16 -103 20 -36 7 -55 14
-105 43 -8 4 -25 12 -37 18 -28 12 -136 120 -154 153 -72 133 -88 180 -94 274
-6 92 4 193 25 253 7 19 15 40 16 45 2 6 8 17 13 25 5 8 12 22 16 30 9 24 60
104 80 127 57 65 130 132 175 162 70 45 177 101 195 101 7 0 26 6 42 14 41 20
118 39 198 47 100 10 361 1 420 -15z m321 -1364 c56 -5 107 -13 114 -17 7 -4
40 -11 74 -15 58 -7 91 -14 196 -40 25 -6 59 -14 75 -16 17 -3 55 -12 85 -20
30 -9 80 -22 110 -30 30 -9 78 -22 105 -29 28 -8 61 -16 75 -19 24 -4 42 -9
120 -36 19 -7 58 -16 85 -20 28 -4 63 -13 78 -19 16 -6 44 -11 63 -11 l35 0
-6 -62 c-3 -35 -10 -107 -16 -162 -9 -89 -8 -155 7 -273 l5 -43 -39 0 c-22 0
-53 7 -68 15 -16 8 -38 15 -49 15 -11 0 -49 6 -85 14 -120 28 -204 37 -424 50
-176 10 -259 10 -430 0 -116 -7 -229 -18 -251 -23 -22 -6 -59 -11 -81 -11 -23
0 -61 -7 -84 -15 -23 -8 -57 -15 -75 -15 -18 0 -52 -7 -75 -15 -23 -8 -57 -15
-75 -15 -18 0 -50 -6 -71 -14 -22 -7 -94 -16 -161 -20 l-121 -8 -17 25 c-14
22 -15 38 -4 136 7 69 10 216 7 385 l-4 274 71 5 c38 2 102 9 140 15 191 31
442 36 691 14z m764 -831 c47 -7 123 -19 170 -27 47 -8 104 -14 128 -14 35 0
42 -3 42 -20 0 -24 -28 -40 -73 -40 -18 0 -56 -7 -83 -15 -27 -8 -67 -15 -89
-15 -22 0 -69 -7 -105 -15 -78 -17 -682 -20 -795 -4 -38 5 -122 14 -185 19
-63 6 -155 14 -205 19 -49 5 -93 10 -97 10 -5 1 -8 7 -8 15 0 8 14 17 33 21
17 3 52 10 77 15 75 15 181 31 270 41 47 5 103 14 125 18 60 14 694 7 795 -8z"/>
<path d="M9665 12833 c-9 -10 -44 -62 -79 -115 -35 -53 -73 -109 -85 -125 -12
-15 -67 -89 -123 -163 -96 -127 -244 -314 -294 -370 -12 -14 -54 -62 -93 -107
-39 -44 -81 -90 -94 -100 -37 -28 -42 -58 -16 -82 36 -33 64 -27 98 22 16 23
51 65 78 93 26 28 60 67 75 85 15 19 57 69 93 112 66 79 145 181 247 316 31
42 69 92 83 111 15 19 54 73 86 119 33 46 73 99 89 118 37 41 37 48 4 78 -32
30 -49 31 -69 8z"/>
<path d="M10325 12560 c-46 -9 -107 -31 -126 -45 -8 -6 -30 -18 -49 -28 -79
-40 -169 -125 -289 -272 -23 -28 -121 -175 -121 -180 0 -3 -12 -24 -27 -48
-15 -23 -38 -62 -51 -87 -41 -74 -52 -94 -72 -125 -11 -16 -23 -37 -27 -45 -8
-17 -89 -158 -103 -180 -6 -8 -15 -24 -20 -35 -6 -11 -24 -42 -41 -70 -16 -27
-36 -64 -44 -82 -8 -17 -19 -34 -25 -38 -5 -3 -10 -14 -10 -24 0 -10 -8 -26
-19 -35 -15 -14 -23 -15 -45 -5 -14 7 -26 15 -26 19 0 20 -188 71 -261 69 -45
0 -135 -22 -179 -42 -61 -28 -182 -142 -283 -268 -44 -55 -177 -239 -177 -245
0 -4 -82 -118 -108 -149 -5 -6 -17 -24 -27 -40 -11 -17 -38 -55 -60 -85 -23
-30 -44 -63 -48 -72 -3 -10 -11 -18 -17 -18 -5 0 -10 -5 -10 -11 0 -6 -20 -37
-45 -69 -25 -32 -45 -61 -45 -65 0 -5 -83 -120 -110 -152 -5 -7 -10 -15 -10
-18 0 -2 -26 -41 -57 -84 -58 -79 -131 -183 -224 -316 -26 -38 -76 -108 -109
-155 -75 -106 -194 -273 -257 -363 -26 -38 -54 -74 -60 -82 -7 -7 -13 -16 -13
-19 0 -3 -26 -42 -57 -85 -32 -44 -85 -118 -118 -165 -33 -47 -84 -118 -113
-158 -79 -110 -79 -110 -109 -154 -15 -23 -55 -78 -88 -123 -139 -191 -203
-279 -233 -324 -17 -26 -36 -53 -42 -60 -38 -45 -140 -188 -140 -197 0 -5 -4
-10 -9 -10 -5 0 -20 -20 -32 -45 -12 -25 -27 -45 -32 -45 -5 0 -23 16 -40 37
-30 34 -220 246 -242 269 -61 65 -244 263 -290 314 -33 36 -64 70 -70 76 -140
146 -305 334 -305 348 0 5 -6 17 -13 25 -26 31 -38 108 -26 159 7 26 16 52 20
58 21 26 96 174 120 234 18 46 25 330 9 374 -6 17 -15 51 -20 76 -4 25 -14 61
-20 80 -29 81 -43 117 -55 145 -7 17 -20 50 -30 75 -9 25 -23 59 -30 75 -7 17
-20 50 -30 75 -10 25 -24 60 -32 77 -7 18 -20 47 -28 65 -28 68 -77 174 -86
188 -5 8 -12 22 -15 30 -6 14 -22 46 -79 155 -14 28 -34 64 -45 80 -11 17 -24
39 -30 50 -48 94 -206 299 -311 404 -77 77 -200 161 -235 161 -6 0 -25 7 -40
15 -38 20 -134 19 -181 -1 -91 -39 -116 -54 -253 -158 -80 -60 -147 -112 -150
-116 -3 -3 -43 -35 -90 -70 -47 -35 -89 -69 -95 -76 -5 -6 -55 -45 -111 -87
-56 -42 -107 -82 -115 -89 -8 -8 -43 -36 -79 -63 -97 -73 -230 -213 -230 -242
0 -5 -5 -14 -11 -20 -22 -22 -49 -117 -49 -173 0 -53 24 -142 46 -172 5 -7 19
-30 29 -51 11 -20 80 -110 155 -200 117 -142 160 -190 230 -267 8 -9 60 -64
114 -124 149 -161 371 -357 462 -406 65 -35 68 -37 109 -55 22 -9 52 -24 67
-31 14 -8 33 -14 41 -14 9 0 28 -6 44 -14 37 -18 90 -36 133 -45 19 -4 45 -13
57 -19 12 -7 34 -12 50 -12 15 0 50 -7 77 -15 27 -8 66 -15 88 -15 21 0 80 -7
130 -16 67 -12 126 -15 211 -11 111 5 118 4 132 -16 8 -12 15 -31 15 -43 0
-12 7 -27 15 -34 8 -7 15 -17 15 -22 0 -9 56 -86 71 -98 3 -3 25 -27 49 -55
44 -52 215 -238 261 -284 14 -14 65 -71 114 -126 49 -55 93 -105 99 -111 6 -6
69 -74 141 -150 71 -76 153 -163 182 -192 29 -29 53 -59 53 -66 0 -8 -79 -119
-176 -247 -184 -246 -206 -267 -282 -268 -18 -1 -49 -8 -69 -16 -19 -8 -48
-15 -64 -15 -15 0 -40 -5 -56 -11 -15 -7 -48 -15 -73 -20 -25 -4 -64 -12 -88
-18 -23 -6 -61 -16 -85 -22 -23 -6 -62 -14 -87 -18 -50 -9 -118 -25 -196 -47
-28 -8 -62 -14 -75 -14 -13 -1 -35 -7 -49 -15 -14 -8 -38 -14 -55 -15 l-30 0
-2 163 c-1 121 -6 171 -17 199 -9 21 -16 50 -16 66 0 15 -7 37 -15 48 -8 10
-15 27 -15 36 0 16 -21 72 -40 108 -5 8 -22 41 -39 73 -17 32 -30 70 -29 85 3
49 -14 96 -49 140 -19 23 -40 42 -47 42 -8 0 -19 7 -26 15 -7 8 -20 15 -30 15
-9 0 -32 8 -51 18 -30 15 -65 17 -309 15 -209 -1 -293 -5 -348 -17 -40 -9 -97
-16 -125 -16 -29 0 -77 -7 -107 -15 -30 -8 -76 -15 -101 -15 -25 0 -68 -7 -95
-15 -27 -8 -71 -15 -99 -15 -27 0 -75 -7 -105 -15 -30 -8 -82 -15 -115 -15
-33 0 -78 -5 -100 -11 -46 -12 -237 -26 -475 -35 -178 -7 -408 7 -525 31 -38
9 -84 15 -102 15 -17 0 -44 5 -60 11 -15 6 -55 15 -88 20 -68 9 -151 25 -210
40 -22 6 -71 15 -110 19 -38 5 -88 13 -110 19 -52 14 -410 14 -455 0 -19 -5
-55 -14 -80 -18 -46 -9 -89 -23 -148 -47 -57 -24 -107 -46 -122 -55 -8 -5 -36
-18 -62 -30 -27 -12 -48 -26 -48 -31 0 -6 12 -27 28 -47 15 -20 32 -43 37 -53
6 -9 33 -49 60 -89 53 -78 70 -105 81 -129 4 -8 20 -31 36 -51 15 -20 28 -39
28 -42 0 -3 19 -34 42 -69 48 -71 64 -96 74 -118 4 -8 19 -31 33 -50 31 -42
49 -70 58 -90 3 -8 18 -31 33 -50 15 -19 29 -40 31 -45 5 -13 261 -394 319
-475 36 -50 40 -61 40 -117 0 -57 -3 -67 -45 -127 -25 -37 -45 -68 -45 -70 0
-3 -19 -33 -42 -68 -24 -35 -47 -71 -53 -80 -5 -9 -37 -56 -70 -103 -33 -48
-64 -94 -70 -103 -5 -9 -35 -50 -66 -92 -31 -41 -58 -80 -60 -86 -2 -6 -14
-24 -27 -40 -12 -16 -79 -105 -149 -199 -69 -93 -130 -172 -133 -175 -4 -3
-31 -36 -61 -75 -29 -38 -55 -72 -58 -75 -4 -3 -31 -36 -62 -75 -31 -38 -79
-95 -107 -125 -54 -57 -60 -69 -39 -71 80 -5 760 5 817 12 41 5 145 14 230 19
85 6 175 14 200 20 25 5 72 9 105 10 33 0 87 7 120 15 33 8 83 14 111 15 28 0
73 7 100 15 27 8 70 15 95 15 26 0 66 7 89 15 23 8 60 15 82 15 21 0 55 7 75
15 19 8 53 15 74 15 l39 0 0 -83 c0 -45 7 -109 15 -140 8 -32 15 -82 15 -111
0 -29 7 -75 15 -102 8 -27 15 -69 15 -94 0 -25 7 -70 15 -100 8 -30 15 -72 15
-93 0 -21 7 -54 15 -74 8 -19 15 -47 15 -62 0 -14 7 -35 15 -45 8 -11 15 -27
15 -35 0 -8 19 -43 42 -78 44 -68 125 -138 193 -165 46 -19 172 -48 206 -48
42 -1 232 31 280 46 26 8 61 14 78 14 17 0 48 7 68 15 19 8 48 15 64 15 15 0
40 5 56 11 15 6 51 15 78 20 88 15 159 31 200 45 23 8 50 14 60 14 11 1 38 9
60 20 22 11 50 19 63 20 30 0 39 -27 16 -49 -11 -10 -26 -28 -34 -41 -8 -12
-20 -28 -25 -34 -10 -11 -42 -57 -60 -88 -11 -19 -90 -145 -117 -186 -10 -15
-22 -36 -28 -47 -6 -11 -18 -32 -28 -47 -29 -44 -268 -442 -275 -458 -4 -8
-16 -28 -27 -45 -11 -16 -22 -37 -26 -45 -3 -8 -10 -22 -15 -30 -5 -8 -12 -22
-15 -30 -3 -8 -11 -28 -18 -45 -24 -55 -46 -141 -46 -181 0 -44 30 -148 48
-166 7 -7 12 -17 12 -23 0 -6 14 -26 32 -45 36 -40 78 -99 78 -111 0 -4 -37
-40 -82 -80 -46 -39 -101 -88 -123 -108 -22 -20 -60 -52 -85 -71 -75 -58 -233
-209 -345 -331 -69 -74 -172 -219 -195 -272 -6 -12 -14 -29 -19 -37 -8 -14
-15 -29 -55 -123 -9 -21 -16 -48 -16 -60 -1 -12 -7 -33 -15 -47 -8 -14 -14
-46 -15 -71 0 -25 -5 -71 -12 -103 -17 -85 15 -320 53 -386 5 -8 15 -28 23
-45 49 -106 202 -168 318 -130 128 42 179 75 291 188 59 59 107 113 107 119 0
5 12 27 28 47 33 44 44 62 77 126 24 48 34 65 55 102 6 10 13 25 16 33 3 8 10
22 15 30 5 8 12 22 15 30 14 32 138 278 170 335 18 33 38 69 44 80 6 11 19 34
30 50 11 17 23 37 27 45 4 8 26 43 50 78 24 35 43 66 43 69 0 3 13 22 28 42
15 20 36 53 47 74 22 42 34 45 72 20 22 -14 48 -18 128 -17 87 0 106 3 143 25
24 13 52 29 63 35 40 22 145 130 207 211 34 45 62 84 62 87 0 3 19 33 42 68
59 88 67 100 78 123 6 11 19 34 30 50 11 17 24 39 30 50 6 11 18 32 28 47 14
23 133 215 175 283 7 10 23 37 37 60 13 22 30 49 37 60 7 11 17 29 23 40 6 11
19 34 30 50 11 17 24 39 30 50 6 11 19 34 30 50 11 17 24 39 30 50 6 11 19 34
30 50 11 17 24 39 30 50 6 11 19 34 30 50 11 17 24 39 30 50 6 11 16 29 23 40
7 11 24 38 37 60 14 23 30 50 37 60 17 27 94 151 115 183 10 15 22 36 28 47 6
11 19 34 30 50 11 17 23 37 27 45 4 8 26 43 50 78 24 35 43 65 43 67 0 1 33
52 73 111 85 129 174 225 277 303 74 56 191 121 220 121 8 0 24 7 34 15 11 8
29 15 41 15 12 0 30 7 41 15 10 8 29 15 41 15 12 0 37 6 55 14 51 21 99 37
138 46 39 9 87 25 138 46 18 8 42 14 53 14 11 0 30 5 42 12 12 6 35 15 52 19
50 12 166 54 212 76 18 9 39 13 48 10 17 -7 15 -39 -11 -152 -8 -33 -14 -91
-14 -130 0 -38 -7 -126 -15 -195 -21 -174 -21 -919 0 -1070 8 -58 15 -136 15
-175 0 -38 7 -97 15 -130 8 -33 15 -82 15 -110 0 -27 7 -75 15 -105 8 -30 15
-75 15 -99 0 -42 -1 -43 -27 -36 -152 38 -433 55 -578 35 -38 -6 -116 -14
-172 -19 -56 -5 -107 -12 -114 -16 -6 -4 -39 -11 -73 -16 -33 -4 -80 -12 -103
-18 -104 -27 -130 -33 -168 -40 -22 -4 -50 -13 -62 -19 -12 -7 -33 -12 -47
-12 -14 0 -40 -6 -58 -14 -55 -22 -101 -38 -141 -46 -21 -4 -44 -13 -50 -19
-6 -6 -20 -11 -30 -11 -10 0 -31 -6 -45 -14 -15 -8 -34 -17 -42 -20 -8 -4 -28
-15 -45 -26 -16 -11 -37 -23 -45 -26 -22 -10 -110 -103 -121 -128 -5 -11 -13
-28 -18 -36 -28 -50 -36 -95 -39 -248 -2 -126 1 -176 13 -217 8 -29 15 -69 15
-88 0 -19 7 -51 15 -70 8 -20 15 -47 15 -59 0 -13 7 -36 15 -52 8 -15 15 -38
15 -50 0 -12 7 -31 15 -42 8 -10 15 -27 15 -36 0 -9 6 -29 14 -45 8 -15 36
-73 62 -128 26 -55 55 -111 65 -125 9 -14 37 -56 62 -95 52 -80 132 -165 192
-203 81 -53 80 -53 145 -77 113 -41 344 -57 447 -31 33 9 76 16 94 16 19 1 45
7 59 15 14 8 37 14 51 15 14 0 34 7 45 15 10 8 25 15 32 15 8 0 44 15 80 34
220 110 392 280 492 486 51 105 70 159 80 230 5 30 13 79 19 109 6 29 11 86
11 125 1 39 5 91 11 116 11 51 26 325 36 630 6 201 -4 366 -28 490 -6 30 -15
105 -19 165 -5 61 -14 139 -21 175 -8 45 -12 221 -11 570 0 413 3 524 16 607
9 57 16 133 16 170 0 38 5 88 11 113 6 25 14 74 17 110 l7 65 40 6 c22 4 55
12 73 18 73 25 99 33 131 41 18 5 38 13 44 19 6 6 14 11 18 11 4 0 47 -78 94
-172 129 -258 136 -272 145 -288 5 -8 19 -35 31 -60 101 -208 322 -658 330
-670 5 -8 12 -22 15 -30 3 -8 10 -22 15 -30 5 -8 12 -22 15 -30 3 -8 10 -22
15 -30 5 -8 12 -22 15 -30 11 -28 37 -85 45 -100 5 -8 14 -26 20 -40 5 -14 28
-63 50 -110 41 -88 58 -124 85 -187 9 -21 23 -51 30 -66 8 -16 14 -35 14 -42
0 -7 6 -26 14 -42 8 -15 22 -47 30 -70 9 -24 23 -61 31 -83 8 -22 22 -58 30
-80 8 -22 22 -58 30 -80 8 -22 22 -59 31 -82 9 -24 23 -59 31 -78 8 -19 22
-51 30 -70 34 -79 43 -98 77 -170 20 -41 52 -102 71 -135 19 -33 38 -67 42
-75 18 -40 159 -213 226 -280 64 -63 139 -118 182 -133 6 -2 26 -10 45 -17 19
-8 71 -15 115 -17 68 -4 88 -1 135 20 67 30 150 109 177 168 53 116 55 123 51
210 -4 77 -16 129 -39 169 -5 8 -12 22 -16 30 -12 28 -81 115 -135 171 -69 72
-353 331 -453 414 -27 22 -68 56 -90 75 -23 19 -72 60 -110 90 -37 30 -77 63
-89 74 -27 24 -171 136 -200 156 -12 8 -32 25 -46 37 -14 12 -56 46 -95 75
-38 30 -71 63 -73 73 -2 11 -24 63 -49 115 -25 52 -72 151 -105 220 -33 69
-63 132 -68 140 -5 8 -19 35 -30 60 -12 25 -26 52 -31 60 -5 8 -12 22 -15 30
-3 8 -10 22 -15 30 -5 8 -12 22 -15 30 -3 8 -10 22 -15 30 -5 8 -12 22 -15 30
-3 8 -10 22 -15 30 -5 8 -12 22 -15 30 -7 16 -248 502 -266 535 -6 11 -15 27
-20 35 -4 8 -10 21 -13 28 -13 32 -16 39 -35 67 -45 70 -51 84 -40 105 8 14
21 20 45 20 19 0 49 6 67 14 51 21 99 37 138 46 19 4 51 14 70 20 88 32 117
40 135 40 11 0 29 7 39 15 11 8 29 15 40 15 12 0 41 6 66 14 45 14 110 33 215
61 30 8 80 22 110 30 101 27 170 47 194 57 31 12 42 -4 36 -52 -34 -269 -42
-819 -16 -1085 16 -164 31 -206 106 -281 93 -94 181 -124 360 -124 121 0 186
8 325 42 25 6 72 14 105 18 33 4 73 13 88 19 16 6 43 11 61 11 19 0 53 7 76
15 23 8 57 15 75 15 18 0 52 7 75 15 23 8 57 15 75 15 18 0 52 7 75 15 23 8
54 15 69 15 14 0 56 7 94 15 37 8 97 22 135 30 37 8 79 15 94 15 15 0 39 5 55
11 15 6 55 15 88 19 33 5 78 13 100 19 58 15 142 31 205 40 30 4 75 13 100 19
123 29 187 42 211 42 15 0 46 7 69 15 23 8 57 15 75 15 18 0 52 7 75 15 23 8
60 15 82 15 21 0 55 7 75 15 19 8 50 15 68 15 17 0 54 7 81 15 27 8 63 15 80
15 17 0 51 7 74 15 23 8 57 15 75 15 18 0 52 7 75 15 23 8 57 15 75 15 18 0
52 7 75 15 23 8 60 15 82 15 21 0 55 7 75 15 19 8 52 15 73 15 21 0 57 7 80
15 23 8 57 15 75 15 18 0 52 7 75 15 23 8 57 15 76 15 18 0 45 5 61 11 25 10
72 18 228 38 36 4 50 10 50 22 0 8 -31 42 -70 76 -38 33 -106 96 -151 139 -44
44 -156 151 -249 239 -93 88 -192 183 -221 210 -244 237 -439 422 -473 448
-40 31 -54 68 -31 82 5 3 21 30 35 58 26 52 36 71 55 105 6 9 13 24 16 32 3 8
10 22 15 30 5 8 12 22 15 30 3 8 10 22 15 30 5 8 20 38 34 65 15 28 35 64 45
80 10 17 29 50 42 75 13 25 34 61 47 80 12 19 27 44 32 55 13 27 27 49 77 123
23 35 42 65 42 67 0 2 79 121 180 270 47 68 300 408 314 420 6 6 29 33 51 60
22 28 73 84 113 126 61 64 70 78 58 89 -12 9 -32 7 -95 -9 -44 -12 -104 -21
-133 -21 -29 -1 -89 -7 -133 -15 -44 -8 -107 -15 -140 -15 -33 0 -95 -7 -138
-15 -43 -8 -109 -15 -145 -15 -37 -1 -96 -7 -132 -15 -36 -8 -96 -15 -135 -15
-38 0 -99 -7 -135 -15 -36 -8 -95 -14 -132 -15 -36 0 -102 -7 -145 -15 -43 -8
-105 -15 -138 -15 -33 -1 -80 -5 -105 -11 -25 -5 -90 -14 -145 -19 -55 -6
-111 -11 -125 -13 l-25 -2 -5 175 c-3 112 -10 183 -18 197 -6 12 -12 34 -12
50 -1 15 -7 39 -15 53 -8 14 -14 35 -15 46 0 12 -7 27 -15 34 -8 7 -15 18 -15
26 0 25 -80 132 -138 185 -64 58 -165 114 -222 123 -19 3 -61 10 -93 15 -45 8
-79 7 -140 -4 -45 -8 -95 -15 -111 -15 -15 0 -49 -6 -75 -14 -58 -18 -133 -37
-191 -47 -25 -4 -65 -13 -90 -19 -25 -7 -70 -18 -100 -25 -30 -7 -75 -18 -100
-25 -25 -6 -65 -15 -90 -19 -25 -5 -58 -13 -73 -20 -16 -6 -40 -11 -54 -11
-14 0 -46 -6 -72 -14 -68 -21 -130 -36 -187 -46 -28 -4 -61 -13 -72 -19 -11
-6 -33 -11 -48 -11 -14 0 -47 -6 -73 -14 -61 -19 -125 -35 -181 -46 -56 -11
-120 -27 -181 -46 -26 -8 -59 -14 -73 -14 -15 0 -43 -7 -63 -15 -19 -8 -49
-15 -65 -15 -16 0 -45 -7 -65 -15 -19 -8 -47 -15 -60 -15 -14 0 -46 -6 -72
-14 -61 -19 -126 -35 -184 -46 -27 -5 -54 -13 -60 -18 -7 -5 -30 -14 -52 -19
-22 -6 -48 -14 -57 -18 -27 -11 -23 31 5 59 34 34 111 128 129 157 9 14 24 34
33 42 9 9 31 39 49 66 18 27 38 55 45 62 23 28 321 430 321 434 0 3 7 13 15
23 9 9 71 93 138 185 67 93 175 241 240 330 119 164 238 329 369 514 40 56 97
135 126 175 51 70 131 185 162 234 33 52 75 109 83 112 4 2 7 8 7 12 0 5 12
26 26 47 14 21 30 47 35 58 5 11 13 27 18 35 20 35 40 87 44 115 3 17 10 48
16 70 22 82 5 189 -53 335 -4 8 -15 29 -26 45 -11 17 -23 37 -27 45 -3 8 -12
22 -20 30 -59 65 -59 60 -9 125 96 124 246 274 425 423 309 258 519 463 586
571 6 9 22 34 36 56 52 82 63 121 62 218 0 76 -4 99 -23 135 -36 68 -103 135
-171 171 -55 29 -72 33 -163 36 -55 2 -119 0 -141 -5z m190 -142 c22 -6 47
-18 56 -25 8 -7 19 -13 23 -13 17 0 75 -76 86 -112 9 -31 9 -51 -1 -91 -7 -29
-17 -58 -23 -66 -16 -21 -35 -54 -42 -73 -3 -10 -10 -18 -14 -18 -4 0 -19 -18
-33 -39 -60 -90 -168 -191 -551 -515 -129 -109 -261 -239 -366 -362 -14 -16
-34 -46 -45 -66 -11 -21 -22 -38 -25 -38 -4 0 -30 25 -60 56 -30 31 -69 67
-86 81 -38 29 -38 32 23 120 24 35 43 66 43 69 0 6 74 133 100 174 6 8 15 24
20 35 6 11 24 43 41 70 16 28 37 64 45 80 8 17 23 44 34 60 11 17 24 39 30 50
6 11 19 34 30 50 11 17 24 40 30 53 5 12 28 50 50 83 22 33 40 63 40 65 0 3
26 40 59 82 61 81 182 201 224 224 155 83 210 94 312 66z m-6246 -1215 c83
-46 196 -160 309 -311 91 -123 105 -144 122 -177 6 -11 19 -33 30 -50 11 -16
22 -37 26 -45 3 -8 9 -22 14 -30 5 -8 32 -62 60 -120 29 -58 56 -112 61 -120
5 -8 12 -22 15 -30 7 -19 26 -65 48 -115 27 -61 42 -96 61 -145 22 -57 44
-107 61 -143 8 -16 14 -35 14 -44 0 -8 6 -27 14 -41 17 -35 36 -88 46 -132 4
-19 13 -48 20 -65 8 -19 13 -84 14 -176 1 -118 -2 -152 -16 -180 -9 -19 -19
-41 -22 -49 -4 -8 -20 -37 -37 -65 -41 -68 -70 -133 -76 -173 l-6 -33 -196 4
c-185 5 -263 14 -411 49 -30 8 -65 19 -77 26 -12 6 -33 12 -47 12 -14 0 -27 4
-30 9 -3 5 -18 12 -33 15 -16 4 -41 13 -58 20 -65 29 -101 44 -115 50 -8 3
-22 10 -30 15 -8 5 -22 12 -30 15 -32 12 -104 65 -180 131 -71 62 -328 321
-412 415 -171 192 -358 426 -358 448 0 5 -7 15 -15 22 -25 20 -20 139 7 192
27 52 149 178 238 244 36 26 67 51 70 55 5 6 105 84 366 284 65 50 125 97 134
106 40 38 180 139 193 139 8 0 20 7 27 15 9 10 31 15 73 15 51 0 70 -6 126
-37z m4790 -10 c52 -15 103 -37 160 -68 81 -45 314 -274 384 -377 74 -111 99
-179 105 -279 4 -80 -17 -164 -58 -231 -11 -18 -23 -40 -27 -48 -3 -8 -19 -31
-35 -51 -15 -20 -28 -40 -28 -44 0 -4 -13 -24 -30 -45 -16 -21 -30 -41 -30
-44 0 -4 -28 -45 -62 -91 -35 -47 -83 -114 -108 -150 -25 -37 -57 -81 -72 -98
-15 -18 -28 -36 -28 -40 0 -5 -27 -44 -60 -87 -33 -43 -60 -84 -60 -89 0 -6
-5 -11 -10 -11 -6 0 -14 -8 -17 -17 -4 -10 -39 -61 -78 -113 -39 -52 -85 -116
-103 -143 -17 -26 -36 -53 -42 -60 -6 -6 -35 -46 -65 -87 -30 -41 -59 -81 -65
-88 -6 -7 -32 -43 -57 -80 -26 -37 -93 -129 -150 -204 -56 -76 -103 -142 -103
-147 0 -6 -6 -14 -14 -18 -7 -4 -34 -38 -59 -75 -25 -37 -51 -73 -57 -80 -6
-7 -94 -125 -195 -263 -101 -137 -198 -266 -215 -286 -16 -20 -30 -40 -30 -43
0 -4 -20 -34 -45 -66 -47 -61 -72 -75 -160 -90 -27 -5 -70 -14 -95 -20 -25 -6
-63 -16 -85 -21 -22 -6 -60 -14 -85 -19 -25 -5 -63 -13 -85 -19 -22 -5 -60
-15 -85 -21 -25 -6 -68 -15 -96 -20 -28 -4 -61 -13 -72 -19 -11 -6 -35 -11
-52 -11 -17 0 -47 -7 -67 -15 -19 -8 -49 -15 -65 -15 -16 0 -45 -7 -65 -15
-19 -8 -48 -15 -63 -15 -15 0 -44 -7 -63 -15 -20 -8 -50 -15 -67 -15 -17 0
-41 -5 -52 -11 -11 -6 -44 -15 -72 -19 -57 -10 -119 -25 -187 -46 -26 -8 -60
-14 -75 -14 -16 -1 -40 -7 -54 -15 -14 -8 -37 -14 -52 -15 -15 0 -39 -5 -55
-12 -65 -26 -123 -45 -128 -40 -13 13 -1 40 32 72 19 19 102 125 184 235 82
110 155 208 163 217 9 10 26 34 40 55 22 35 182 252 206 280 6 7 25 34 42 60
18 27 64 91 103 145 101 139 299 416 420 588 39 55 91 129 118 165 26 35 47
68 47 72 0 4 13 22 28 40 15 18 43 55 62 83 19 29 68 96 108 151 39 55 72 102
72 105 0 3 27 41 60 84 33 43 60 81 60 84 0 6 36 57 177 250 32 44 60 84 62
90 2 6 24 37 48 68 23 31 43 59 43 63 0 4 20 32 44 63 24 31 78 109 121 172
43 63 103 149 134 190 31 41 65 89 76 105 10 17 23 35 29 42 6 6 27 35 46 63
146 216 292 391 365 439 95 62 151 72 244 44z m1584 -3121 c31 -10 63 -24 69
-30 7 -7 17 -12 23 -12 14 0 73 -56 111 -105 39 -50 94 -152 94 -175 0 -10 8
-35 17 -56 15 -35 17 -90 18 -499 1 -303 5 -494 14 -560 15 -127 10 -567 -9
-682 l-14 -83 -170 0 c-94 0 -205 -5 -246 -11 -41 -5 -136 -14 -210 -19 -126
-8 -163 -13 -337 -41 -38 -6 -99 -15 -138 -19 -38 -5 -83 -13 -98 -19 -16 -6
-43 -11 -62 -11 -19 0 -46 -5 -62 -12 -15 -6 -50 -14 -78 -18 -63 -9 -195 -42
-306 -76 -26 -8 -55 -14 -65 -14 -11 0 -32 -7 -48 -15 -15 -8 -40 -15 -55 -15
-15 0 -32 -5 -38 -11 -6 -6 -29 -15 -50 -19 -45 -9 -98 -28 -135 -46 -14 -8
-40 -14 -56 -14 -17 0 -43 -5 -59 -11 -15 -7 -48 -15 -73 -20 -52 -9 -122 -26
-165 -41 -16 -6 -48 -13 -70 -17 -22 -4 -56 -12 -75 -18 -19 -6 -62 -19 -95
-28 -33 -9 -73 -21 -90 -27 -16 -5 -48 -14 -70 -18 -22 -4 -55 -13 -72 -19
-18 -6 -48 -16 -65 -22 -18 -6 -50 -14 -71 -19 -21 -4 -44 -13 -50 -19 -6 -6
-20 -11 -30 -11 -22 0 -80 -18 -227 -69 -19 -7 -50 -17 -69 -21 -18 -5 -38
-13 -44 -19 -6 -6 -25 -11 -42 -11 -17 0 -40 -7 -51 -15 -10 -8 -29 -15 -42
-15 -13 0 -33 -5 -45 -12 -12 -6 -38 -15 -57 -19 -33 -7 -49 -11 -130 -39 -19
-7 -51 -16 -70 -20 -19 -4 -51 -14 -70 -20 -19 -7 -51 -18 -70 -25 -19 -7 -51
-18 -70 -25 -19 -6 -51 -16 -70 -20 -19 -4 -51 -14 -70 -20 -19 -7 -51 -18
-70 -25 -19 -7 -51 -18 -70 -25 -19 -6 -51 -16 -70 -20 -19 -4 -51 -14 -70
-20 -88 -31 -109 -38 -165 -55 -33 -9 -76 -23 -95 -30 -19 -7 -51 -18 -70 -25
-19 -6 -52 -15 -72 -20 -21 -4 -43 -12 -50 -17 -7 -6 -26 -13 -43 -16 -16 -2
-46 -10 -65 -17 -77 -27 -97 -32 -133 -40 -21 -4 -44 -13 -50 -19 -6 -6 -21
-11 -34 -11 -12 0 -37 -6 -55 -14 -18 -7 -60 -21 -93 -31 -33 -9 -75 -23 -93
-31 -18 -8 -43 -14 -55 -14 -12 -1 -33 -7 -47 -15 -14 -8 -38 -14 -53 -15 -16
0 -38 -5 -50 -12 -12 -6 -38 -15 -57 -19 -19 -4 -48 -12 -65 -17 -16 -6 -57
-18 -90 -27 -33 -9 -73 -21 -90 -27 -16 -5 -48 -13 -70 -17 -22 -4 -50 -13
-62 -19 -12 -7 -33 -12 -47 -12 -14 0 -43 -6 -63 -14 -44 -15 -111 -34 -168
-46 -22 -4 -53 -12 -70 -18 -33 -12 -99 -29 -160 -42 -39 -8 -76 -18 -180 -45
-100 -27 -141 -36 -187 -45 -26 -5 -56 -13 -67 -19 -11 -6 -33 -11 -50 -11
-16 0 -42 -5 -58 -11 -15 -7 -48 -15 -73 -20 -25 -4 -64 -12 -88 -18 -23 -6
-61 -16 -85 -22 -23 -6 -64 -14 -92 -18 -27 -4 -60 -12 -72 -19 -12 -7 -38
-12 -58 -12 -20 0 -46 -5 -57 -11 -12 -7 -47 -15 -77 -20 -31 -4 -74 -12 -96
-18 -249 -62 -374 -55 -485 26 -44 33 -51 42 -86 115 -32 65 -45 107 -55 173
-5 33 -14 76 -19 95 -5 19 -10 53 -10 75 0 22 -7 65 -15 95 -8 30 -15 75 -15
100 0 25 -7 72 -15 105 -8 33 -15 83 -15 110 0 28 -7 77 -15 110 -8 33 -15 89
-15 125 0 36 -7 96 -15 135 -8 38 -15 104 -15 145 0 41 -7 122 -15 180 -20
143 -20 551 0 640 8 36 14 84 15 107 0 58 21 144 37 150 7 3 28 -5 47 -16 31
-19 49 -22 163 -22 90 0 142 5 172 16 24 8 60 15 81 15 21 0 57 7 80 15 23 8
59 15 80 15 21 0 57 7 80 15 23 8 59 15 80 15 21 0 57 7 80 15 23 8 57 15 75
15 18 0 52 7 75 15 23 8 57 15 75 15 18 0 52 7 75 15 23 8 59 15 80 15 21 0
57 7 80 15 23 8 57 15 75 15 18 0 49 7 68 15 20 8 52 15 70 15 19 0 54 7 77
15 23 8 57 15 76 15 18 0 45 5 61 12 15 6 51 14 78 18 28 4 71 12 98 19 26 6
68 16 95 22 26 7 67 15 92 19 44 7 91 17 180 40 25 6 70 15 101 19 30 5 65 13
77 20 11 6 34 11 51 11 16 0 42 5 58 12 15 6 51 14 78 19 28 4 68 12 90 18 22
5 60 15 85 21 25 6 68 15 96 20 28 4 61 13 72 19 11 6 35 11 52 11 17 0 47 7
67 15 19 8 49 15 65 15 16 0 45 7 65 15 19 8 47 15 60 15 14 0 46 6 72 14 55
17 121 34 176 45 51 11 126 29 190 46 28 8 64 16 80 19 37 6 105 23 166 42 26
8 57 14 70 14 13 0 44 6 69 14 63 20 137 38 190 45 25 4 55 13 67 19 12 7 36
12 53 12 17 0 47 7 67 15 19 8 49 15 65 15 16 0 45 7 65 15 19 8 49 15 65 15
16 0 45 7 65 15 19 8 49 15 65 15 16 0 45 7 65 15 19 8 49 15 65 15 16 0 45 7
65 15 19 8 49 15 65 15 16 0 45 7 65 15 19 8 49 15 65 15 16 0 45 7 65 15 19
8 49 15 65 15 16 0 45 7 65 15 19 8 48 15 63 15 15 0 44 7 63 15 20 8 49 15
65 15 16 0 46 7 65 15 20 8 49 15 65 15 16 0 46 7 65 15 20 8 49 15 65 15 16
0 46 7 65 15 20 8 48 15 63 15 14 0 47 6 73 14 64 20 128 36 181 45 50 9 118
25 195 46 28 8 64 16 80 19 37 6 105 23 166 42 26 8 58 14 72 14 13 0 41 7 60
15 20 8 48 15 63 15 14 0 47 6 73 14 61 19 125 35 181 46 56 11 120 27 181 46
26 8 59 14 73 14 15 0 43 7 63 15 19 8 48 15 63 15 15 0 44 7 63 15 20 8 48
15 63 15 14 0 47 6 73 14 58 18 133 37 191 47 25 4 63 12 85 18 175 45 277 51
368 23z m-6443 -305 c47 -7 96 -19 110 -26 33 -18 60 -47 60 -65 0 -20 -74
-82 -129 -107 -25 -12 -74 -34 -108 -50 -103 -47 -196 -90 -231 -104 -154 -66
-175 -76 -205 -91 -16 -8 -35 -14 -42 -14 -7 0 -26 -6 -42 -14 -15 -8 -48 -22
-73 -31 -25 -9 -58 -23 -73 -31 -16 -8 -36 -14 -46 -14 -9 0 -26 -7 -37 -15
-10 -8 -28 -15 -39 -15 -11 0 -29 -6 -40 -14 -11 -7 -31 -16 -45 -19 -34 -7
-89 -27 -122 -43 -14 -8 -37 -14 -50 -14 -13 0 -33 -7 -44 -15 -10 -8 -30 -15
-44 -15 -14 0 -34 -6 -45 -14 -11 -7 -33 -16 -50 -18 -16 -3 -43 -10 -60 -16
-16 -6 -46 -15 -65 -22 -19 -7 -51 -16 -70 -20 -33 -8 -50 -13 -130 -40 -19
-7 -51 -16 -70 -20 -51 -12 -109 -35 -122 -48 -7 -7 -16 -12 -20 -12 -18 0
-96 -66 -124 -105 -40 -54 -56 -91 -65 -150 -8 -54 -25 -123 -41 -170 -6 -16
-14 -55 -18 -85 -5 -30 -13 -71 -19 -90 -6 -19 -11 -55 -11 -80 0 -25 -7 -85
-15 -135 -19 -115 -19 -333 0 -500 8 -71 15 -166 15 -210 0 -44 7 -111 15
-150 22 -103 20 -124 -12 -136 -16 -6 -62 -14 -103 -19 -41 -5 -88 -13 -103
-19 -16 -6 -47 -11 -70 -11 -23 0 -64 -7 -91 -15 -27 -8 -70 -15 -95 -15 -25
0 -73 -7 -106 -15 -33 -8 -85 -14 -117 -15 -31 0 -92 -7 -135 -15 -43 -8 -110
-15 -150 -15 -40 0 -121 -6 -180 -14 -59 -8 -213 -17 -342 -20 -143 -3 -238
-9 -244 -15 -6 -6 -21 -11 -34 -11 -20 0 -22 4 -17 25 3 14 23 42 43 63 48 50
81 90 155 187 33 44 64 85 68 90 5 6 53 71 108 145 55 74 110 148 122 164 13
16 27 37 33 47 5 10 37 56 70 104 33 47 65 94 70 103 6 9 22 33 38 53 15 20
27 40 27 44 0 4 14 24 30 45 16 21 30 40 30 43 0 3 19 34 43 69 94 142 107
173 107 258 0 79 -22 138 -81 217 -22 29 -39 55 -39 58 0 4 -20 33 -45 65 -25
32 -45 62 -45 65 0 4 -14 24 -30 45 -17 21 -30 40 -30 43 0 3 -33 55 -74 116
-41 61 -76 114 -78 118 -1 5 -34 55 -73 113 -78 117 -91 138 -101 160 -4 8
-19 31 -34 50 -15 19 -30 42 -33 50 -10 21 -28 49 -59 91 -16 20 -28 40 -28
44 0 3 -20 33 -45 65 -25 32 -45 63 -45 68 0 13 46 42 67 42 10 0 31 7 47 15
15 8 38 15 51 15 12 0 40 8 61 17 56 24 443 24 523 -1 30 -9 71 -16 92 -16 20
0 56 -7 79 -15 23 -8 58 -15 77 -15 19 0 44 -5 55 -11 12 -6 48 -15 82 -20 61
-8 87 -12 266 -46 132 -25 800 -24 925 1 44 9 103 16 130 16 28 1 79 7 115 15
36 8 85 15 110 15 25 0 70 7 100 15 30 8 76 15 101 15 25 0 68 7 95 15 27 8
72 15 99 15 28 0 77 7 110 15 33 8 94 15 135 16 41 0 98 4 125 9 80 12 253 11
345 -3z m230 -294 c6 -16 15 -36 20 -45 6 -10 10 -26 10 -36 0 -10 5 -23 11
-29 6 -6 15 -29 19 -50 5 -21 13 -51 18 -68 29 -84 43 -364 20 -382 -17 -13
-51 -22 -118 -32 -30 -5 -76 -13 -102 -20 -27 -6 -69 -16 -95 -22 -27 -7 -70
-15 -98 -19 -27 -4 -63 -12 -78 -18 -16 -7 -43 -12 -61 -12 -19 0 -50 -7 -69
-15 -20 -8 -53 -15 -74 -15 -21 0 -58 -6 -83 -14 -52 -17 -140 -35 -222 -46
-31 -4 -61 -11 -68 -15 -7 -4 -37 -11 -68 -15 -32 -4 -77 -12 -102 -18 -64
-15 -156 -33 -220 -42 -30 -4 -68 -13 -83 -19 -16 -6 -45 -11 -65 -11 -21 0
-53 -5 -72 -11 -19 -7 -62 -15 -95 -19 -33 -4 -80 -12 -105 -18 -249 -61 -353
-20 -324 128 8 37 95 130 123 130 10 0 24 6 30 14 6 8 24 16 39 19 15 2 42 10
60 16 83 29 100 34 142 42 24 5 49 14 54 19 6 6 21 10 36 10 14 1 36 7 50 15
14 8 34 14 45 15 11 0 33 7 49 15 15 8 37 15 47 15 10 0 33 6 51 14 42 17 94
35 133 46 48 13 98 31 128 46 16 8 36 14 46 14 9 0 26 7 37 15 10 8 28 15 40
15 11 0 29 7 40 15 10 8 28 15 40 15 11 0 29 7 40 15 10 8 27 15 36 15 9 0 29
6 45 14 15 8 48 22 73 31 43 17 61 24 140 58 65 28 105 45 175 77 93 42 127
57 145 64 8 3 22 10 30 15 8 5 22 12 30 15 8 3 23 10 33 16 9 5 25 15 35 20 9
6 24 13 32 17 8 3 26 15 39 25 33 25 50 23 61 -9z m8344 -99 c25 -10 19 -27
-26 -75 -24 -25 -69 -79 -100 -120 -97 -127 -208 -279 -208 -285 0 -3 -13 -23
-30 -44 -16 -21 -30 -41 -30 -45 0 -4 -13 -24 -30 -45 -16 -21 -30 -41 -30
-45 0 -4 -13 -24 -28 -44 -16 -20 -32 -43 -35 -51 -4 -8 -16 -28 -27 -45 -11
-16 -24 -39 -30 -50 -6 -11 -19 -33 -30 -50 -11 -16 -24 -39 -30 -50 -6 -11
-19 -33 -30 -50 -11 -16 -31 -52 -46 -80 -14 -27 -41 -77 -59 -110 -19 -33
-46 -82 -60 -110 -14 -27 -30 -57 -35 -65 -5 -8 -11 -22 -14 -30 -3 -8 -10
-22 -15 -30 -5 -8 -12 -22 -15 -30 -3 -8 -10 -22 -15 -30 -5 -8 -26 -50 -47
-93 -20 -42 -41 -80 -45 -83 -21 -12 -6 -42 39 -77 26 -20 97 -85 158 -144
230 -222 503 -485 522 -501 10 -9 83 -78 161 -151 78 -74 155 -144 171 -155
17 -12 29 -28 27 -36 -2 -15 -11 -17 -167 -38 -41 -5 -88 -15 -103 -21 -16 -6
-43 -11 -61 -11 -19 0 -53 -7 -76 -15 -23 -8 -57 -15 -75 -15 -18 0 -52 -7
-75 -15 -23 -8 -57 -15 -75 -15 -18 0 -52 -7 -75 -15 -23 -8 -60 -15 -82 -15
-21 0 -55 -7 -75 -15 -19 -8 -52 -15 -73 -15 -21 0 -57 -7 -80 -15 -23 -8 -57
-15 -76 -15 -18 0 -45 -5 -61 -11 -15 -6 -53 -15 -83 -19 -30 -4 -75 -12 -100
-18 -72 -17 -150 -32 -215 -41 -33 -5 -73 -14 -88 -20 -16 -6 -43 -11 -61 -11
-19 0 -53 -7 -76 -15 -23 -8 -54 -15 -69 -15 -14 0 -56 -7 -93 -15 -38 -8 -98
-22 -135 -30 -38 -8 -80 -15 -94 -15 -15 0 -46 -7 -69 -15 -23 -8 -57 -15 -75
-15 -18 0 -52 -7 -75 -15 -23 -8 -57 -15 -75 -15 -18 0 -52 -7 -75 -15 -23 -8
-57 -15 -75 -15 -18 0 -52 -7 -75 -15 -23 -8 -59 -15 -80 -15 -21 0 -54 -7
-73 -15 -20 -8 -54 -15 -75 -15 -22 0 -59 -7 -82 -15 -23 -8 -57 -15 -75 -15
-18 0 -52 -7 -75 -15 -23 -8 -57 -15 -75 -15 -18 0 -52 -7 -75 -15 -23 -8 -57
-15 -74 -15 -18 0 -57 -7 -87 -16 -38 -12 -95 -16 -194 -17 -163 0 -201 12
-272 85 -39 41 -42 49 -59 146 l-18 103 70 70 c67 68 213 190 237 198 7 2 28
16 47 30 44 32 62 44 125 76 28 14 57 29 65 34 26 14 143 67 190 86 44 17 68
27 143 59 21 9 44 16 52 16 7 0 26 6 42 14 33 16 85 35 132 46 18 5 38 13 44
19 6 6 23 11 37 11 14 0 35 7 46 15 10 8 30 15 45 15 14 0 30 5 36 11 6 6 26
14 44 19 46 11 98 30 131 46 14 8 33 14 41 14 9 0 28 6 44 14 26 13 70 32 138
61 17 7 47 20 68 29 20 9 54 23 75 32 20 9 44 20 52 25 8 4 35 18 58 31 117
61 233 230 262 383 4 22 12 53 19 68 6 16 11 44 11 63 0 20 5 45 12 57 6 12
15 53 20 92 4 38 12 97 17 130 15 95 12 417 -4 560 -9 77 -15 224 -15 358 l0
227 74 0 c41 0 110 7 153 15 43 8 105 15 138 15 33 0 95 7 138 15 43 8 109 15
145 15 37 1 96 7 132 15 36 8 92 14 125 15 33 0 98 7 145 15 47 8 112 15 145
15 33 0 78 5 100 10 22 5 90 14 150 20 61 5 128 16 150 24 22 8 41 15 42 16 1
0 8 -3 17 -6z m-1834 -1666 c0 -13 -7 -32 -15 -42 -8 -11 -15 -28 -15 -37 0
-15 -15 -52 -42 -99 -4 -8 -11 -21 -15 -29 -18 -38 -119 -123 -183 -153 -100
-48 -172 -78 -184 -78 -7 0 -19 -7 -26 -15 -7 -8 -23 -15 -36 -15 -12 0 -25
-4 -29 -10 -3 -5 -20 -14 -38 -19 -18 -5 -57 -19 -87 -31 -30 -12 -70 -25 -88
-30 -18 -4 -38 -12 -45 -18 -7 -5 -23 -12 -37 -15 -14 -3 -41 -11 -60 -17 -19
-7 -51 -18 -70 -25 -19 -7 -51 -18 -70 -24 -19 -7 -48 -16 -65 -21 -16 -5 -55
-18 -85 -30 -30 -12 -64 -24 -75 -27 -21 -5 -68 -25 -118 -49 -16 -8 -35 -14
-42 -14 -7 0 -26 -7 -42 -14 -15 -8 -35 -17 -43 -20 -8 -3 -22 -10 -30 -15 -8
-5 -49 -26 -90 -46 -81 -39 -92 -45 -158 -87 -24 -16 -45 -28 -48 -28 -13 0
-164 -122 -202 -164 -44 -48 -57 -55 -64 -33 -7 17 10 630 20 749 9 107 22
132 73 143 16 4 31 11 34 16 4 5 17 9 31 9 14 0 35 5 47 12 12 6 38 15 57 19
19 4 49 12 65 17 17 6 55 17 85 26 30 8 80 21 110 29 113 31 146 39 190 46 25
5 65 13 90 19 132 31 188 42 215 42 17 0 55 7 85 15 30 8 75 15 100 15 25 0
74 7 110 15 36 8 92 15 125 15 33 0 89 5 125 11 55 9 149 15 493 27 43 2 47 0
47 -20z m-5272 -1290 c-3 -7 -11 -13 -18 -13 -7 0 -15 6 -17 13 -3 7 4 12 17
12 13 0 20 -5 18 -12z m-58 -27 c0 -5 -22 -31 -48 -58 -43 -42 -146 -174 -179
-228 -16 -26 -93 -149 -115 -183 -10 -15 -22 -36 -28 -47 -6 -11 -18 -32 -28
-47 -21 -32 -163 -262 -177 -286 -26 -44 -112 -187 -127 -210 -10 -15 -22 -36
-28 -47 -6 -11 -19 -33 -30 -50 -11 -16 -24 -39 -30 -50 -6 -11 -18 -32 -28
-47 -14 -22 -168 -271 -205 -333 -7 -10 -23 -37 -37 -60 -13 -22 -30 -49 -37
-60 -7 -11 -17 -29 -23 -40 -6 -11 -19 -33 -30 -50 -11 -16 -23 -37 -27 -45
-4 -8 -19 -33 -35 -54 -15 -21 -28 -43 -28 -47 0 -4 -19 -36 -43 -71 -23 -35
-53 -84 -65 -111 -25 -50 -56 -63 -70 -29 -21 50 -81 127 -164 208 -87 84
-169 154 -181 154 -3 0 -26 14 -51 30 -127 86 -328 165 -448 177 -41 4 -58 10
-58 20 0 8 20 43 45 79 25 35 45 67 45 70 0 3 13 25 28 48 15 22 31 48 35 56
4 8 16 29 27 45 11 17 24 39 30 50 6 11 19 34 30 50 11 17 24 39 30 50 6 11
18 32 28 47 9 14 44 70 77 123 33 54 68 109 77 124 10 14 21 33 25 41 4 8 25
41 48 75 23 33 44 67 48 75 4 8 15 27 25 42 93 145 95 146 126 151 39 5 122
25 161 39 17 6 50 13 75 17 25 4 55 13 67 19 12 7 37 12 55 12 18 1 44 7 58
15 14 8 39 15 55 15 17 0 41 7 55 15 14 8 41 15 60 15 19 0 46 7 60 15 14 8
38 14 53 15 16 0 38 5 50 12 12 6 40 15 62 19 22 4 56 12 75 19 101 35 186 59
235 69 38 7 80 19 150 43 17 5 47 13 68 18 21 4 44 13 50 19 6 6 19 11 29 11
10 0 35 9 55 20 21 11 48 20 60 20 12 0 25 5 28 10 8 13 35 13 35 1z m2834
-1226 c3 -9 0 -15 -9 -15 -8 0 -15 7 -15 15 0 8 4 15 9 15 5 0 11 -7 15 -15z
m91 -76 c17 -17 84 -76 150 -131 66 -55 131 -110 145 -122 14 -11 53 -44 88
-73 34 -29 68 -58 76 -65 7 -7 42 -38 77 -68 169 -147 344 -318 394 -385 56
-75 68 -110 68 -188 -1 -64 -5 -79 -33 -125 -17 -28 -49 -65 -70 -82 -34 -27
-45 -30 -107 -30 -122 0 -229 76 -378 270 -25 32 -45 61 -45 65 0 3 -11 21
-24 38 -14 18 -30 43 -35 57 -6 14 -20 39 -31 55 -19 28 -22 35 -35 68 -3 6
-9 19 -14 27 -5 8 -16 31 -24 50 -9 19 -30 65 -46 103 -17 37 -31 72 -31 78 0
6 -6 23 -14 37 -13 26 -29 66 -63 157 -8 22 -21 54 -28 70 -7 17 -23 55 -35
85 -12 30 -29 64 -36 75 -8 11 -14 30 -14 42 0 33 29 29 65 -8z m-5211 -415
c28 -9 65 -20 81 -26 17 -5 44 -14 60 -18 54 -15 105 -36 117 -48 7 -7 20 -12
29 -12 9 0 22 -7 29 -15 7 -8 17 -15 22 -15 5 0 44 -23 86 -50 93 -61 242
-205 323 -312 67 -87 67 -99 4 -138 -19 -12 -35 -26 -35 -31 0 -5 -5 -9 -12
-9 -6 0 -19 -6 -27 -13 -9 -8 -36 -21 -62 -30 -42 -16 -48 -16 -95 -1 -84 28
-80 15 -57 192 8 67 -14 127 -66 181 -67 68 -120 91 -215 91 -75 0 -143 -21
-161 -50 -14 -23 -51 -10 -70 27 -11 20 -24 41 -30 47 -31 34 -45 78 -45 140
0 107 21 122 124 90z m3476 -176 c25 -6 74 -13 110 -17 l65 -6 3 -109 c3 -109
3 -110 -25 -132 -15 -13 -31 -23 -35 -24 -4 0 -26 -12 -50 -27 -69 -45 -80
-51 -133 -78 -27 -14 -57 -30 -65 -34 -8 -5 -31 -16 -50 -24 -19 -8 -52 -22
-72 -31 -92 -40 -112 -48 -218 -86 -19 -6 -51 -15 -70 -19 -19 -4 -51 -13 -70
-18 -55 -18 -131 -35 -185 -43 -27 -5 -63 -13 -78 -19 -16 -6 -43 -11 -61 -11
-19 0 -53 -7 -76 -15 -23 -8 -61 -15 -84 -15 -22 0 -66 -7 -96 -15 -67 -18
-346 -21 -399 -4 -69 22 -66 14 -65 156 1 113 4 136 23 176 41 85 127 144 301
206 19 7 51 17 70 21 33 7 47 12 133 41 17 6 50 14 72 18 22 4 50 13 62 19 12
7 36 12 53 12 17 0 47 7 67 15 19 8 50 15 68 15 17 0 54 7 81 15 27 8 69 15
94 15 25 1 72 7 105 14 75 17 460 20 525 4z m-3238 -227 c13 -5 38 -24 56 -42
37 -38 42 -79 18 -147 -9 -24 -12 -56 -9 -77 6 -36 -18 -82 -74 -145 -13 -14
-23 -29 -23 -33 0 -5 -13 -26 -28 -46 -16 -20 -32 -43 -35 -51 -4 -8 -16 -28
-27 -45 -11 -16 -23 -37 -27 -45 -4 -8 -18 -31 -31 -50 -13 -19 -28 -44 -33
-55 -5 -11 -18 -33 -29 -50 -11 -16 -22 -37 -26 -45 -3 -8 -10 -22 -15 -30 -5
-8 -20 -37 -34 -65 -14 -27 -30 -57 -34 -65 -5 -8 -23 -46 -41 -85 -17 -38
-36 -77 -41 -85 -5 -8 -12 -22 -15 -30 -3 -8 -9 -22 -14 -30 -5 -8 -21 -37
-35 -65 -27 -53 -33 -64 -77 -133 -16 -24 -28 -45 -28 -48 0 -15 -126 -167
-167 -202 -68 -59 -162 -102 -221 -102 -42 0 -53 5 -83 34 -41 42 -61 92 -84
213 -18 96 -18 97 15 293 13 78 70 217 121 295 10 17 22 38 25 48 4 9 10 17
14 17 4 0 11 10 17 23 25 53 326 360 433 442 131 99 320 284 320 313 0 22 71
86 105 95 34 8 83 7 107 -2z m3401 -231 c-2 -14 -7 -77 -12 -140 -6 -63 -15
-142 -21 -175 -5 -33 -10 -94 -10 -135 -1 -41 -7 -93 -15 -115 -8 -22 -15 -52
-15 -66 0 -14 -7 -34 -15 -45 -8 -10 -15 -29 -15 -41 0 -12 -4 -24 -9 -27 -5
-4 -19 -27 -32 -54 -63 -132 -261 -329 -383 -383 -12 -5 -28 -13 -36 -17 -48
-27 -84 -42 -99 -42 -9 0 -26 -7 -37 -15 -10 -8 -33 -15 -50 -15 -17 0 -48 -7
-67 -15 -51 -21 -323 -21 -374 0 -19 8 -43 15 -52 15 -33 0 -135 62 -187 114
-43 44 -154 202 -174 249 -6 12 -14 29 -19 37 -5 8 -12 22 -15 30 -3 8 -10 22
-15 30 -11 19 -35 73 -56 130 -9 25 -23 60 -31 78 -8 18 -14 40 -14 50 0 9 -6
29 -14 44 -8 14 -17 45 -21 67 -6 38 -5 41 17 41 12 0 41 -7 63 -15 53 -19
230 -19 320 0 38 8 89 15 111 15 23 0 61 7 84 15 23 8 57 15 75 15 18 0 52 7
75 15 23 8 58 15 77 15 18 0 50 7 70 15 19 8 49 15 65 15 16 0 45 7 65 15 19
8 46 15 60 15 13 0 34 5 46 12 12 6 38 15 57 19 36 7 81 22 138 46 62 25 103
43 135 57 17 8 39 17 47 20 8 3 22 10 30 14 30 17 56 31 107 58 29 15 67 40
85 55 40 34 64 34 61 -1z"/>
<path d="M10408 12184 c-5 -4 -8 -15 -8 -24 0 -17 -26 -77 -54 -128 -20 -36
-64 -78 -112 -108 -24 -16 -44 -31 -44 -35 0 -18 43 -79 56 -79 32 0 165 136
206 211 38 67 62 139 51 150 -12 12 -87 22 -95 13z"/>
<path d="M4095 10913 c-24 -27 -34 -63 -17 -63 8 0 94 -82 142 -136 67 -75
201 -269 261 -377 74 -134 234 -466 264 -550 10 -26 22 -50 26 -53 13 -8 79
24 85 41 4 9 -11 52 -34 98 -22 45 -59 123 -82 172 -23 50 -45 97 -51 105 -5
8 -12 22 -15 30 -3 8 -9 22 -14 30 -5 8 -21 38 -34 65 -14 28 -41 77 -61 110
-19 33 -38 67 -42 75 -14 30 -136 206 -171 249 -144 172 -199 231 -217 231 -8
0 -26 -12 -40 -27z"/>
<path d="M3757 10635 c-34 -42 -34 -49 1 -73 33 -25 195 -189 252 -257 23 -27
52 -61 64 -75 44 -50 160 -210 201 -278 6 -9 24 -37 40 -62 40 -62 66 -108
126 -227 28 -57 57 -103 65 -103 8 0 14 4 14 9 0 5 14 12 30 16 37 8 39 31 7
83 -22 34 -78 134 -117 207 -31 57 -159 249 -208 310 -4 6 -35 46 -69 90 -34
44 -82 103 -108 130 -105 112 -240 247 -255 255 -12 6 -23 0 -43 -25z"/>
<path d="M3482 10407 c-30 -32 -28 -51 11 -84 18 -15 62 -64 98 -108 35 -44
69 -84 75 -90 35 -31 351 -480 377 -535 4 -8 16 -28 27 -45 11 -16 24 -39 30
-50 6 -11 24 -42 41 -70 16 -27 35 -62 40 -77 13 -33 34 -35 78 -10 26 14 31
21 26 42 -4 14 -10 27 -14 30 -6 4 -107 166 -166 268 -39 67 -229 338 -288
412 -7 8 -40 51 -74 95 -34 44 -78 98 -98 120 -20 22 -50 59 -67 83 -36 48
-63 54 -96 19z"/>
<path d="M4365 9180 c-20 -38 -19 -59 3 -66 9 -3 33 -12 52 -19 103 -38 144
-45 285 -45 79 0 150 3 159 6 22 9 20 63 -4 94 -19 25 -19 25 -48 7 -24 -13
-53 -17 -136 -17 -107 0 -148 9 -227 51 -50 26 -66 24 -84 -11z"/>
<path d="M9245 10250 c-32 -49 -63 -90 -67 -90 -4 0 -8 -4 -8 -10 0 -5 -26
-46 -57 -89 -110 -152 -396 -552 -530 -744 -26 -38 -54 -74 -60 -82 -7 -7 -13
-16 -13 -20 0 -3 -21 -35 -47 -70 -27 -36 -68 -94 -93 -130 -25 -36 -52 -75
-60 -85 -8 -11 -35 -50 -60 -86 -25 -36 -71 -102 -102 -145 -32 -44 -58 -82
-58 -85 0 -3 -19 -31 -43 -62 -42 -57 -113 -159 -132 -190 -5 -9 -35 -50 -65
-92 -30 -42 -59 -83 -65 -92 -5 -9 -34 -52 -64 -95 -30 -43 -68 -98 -85 -123
-16 -25 -49 -71 -73 -102 -24 -31 -43 -60 -43 -65 0 -4 -14 -22 -30 -40 -41
-44 -40 -75 5 -96 48 -23 49 -22 69 19 9 20 37 63 62 95 24 31 44 60 44 64 0
4 19 32 43 63 23 32 47 65 52 74 12 19 92 136 132 193 15 22 31 42 36 43 4 2
7 8 7 14 0 5 19 35 43 66 23 32 47 65 52 74 17 29 87 130 145 208 30 42 60 83
65 92 20 34 92 135 147 210 32 42 58 79 58 82 0 3 20 34 45 68 177 248 302
425 355 502 25 36 80 114 122 173 43 60 106 148 140 196 35 49 111 154 171
234 59 80 107 151 107 157 0 18 -47 56 -68 56 -12 0 -39 -32 -77 -90z"/>
<path d="M9384 6953 c-37 -7 -102 -75 -109 -114 -14 -77 62 -157 151 -158 36
-1 80 -32 89 -62 11 -33 -21 -59 -71 -59 -35 0 -47 5 -73 35 -56 64 -83 38
-44 -43 l25 -52 57 0 c67 0 113 19 154 64 33 36 41 64 34 114 -7 41 -57 92
-92 92 -33 0 -117 29 -137 47 -28 25 -23 60 12 78 35 18 56 11 108 -39 27 -26
34 -28 42 -16 14 23 12 37 -12 80 -22 38 -26 40 -68 39 -25 -1 -55 -4 -66 -6z"/>
<path d="M9005 6841 c-22 -10 -55 -35 -73 -55 -31 -33 -62 -47 -62 -28 0 5
-15 17 -33 27 -32 17 -34 17 -74 -4 -23 -11 -50 -32 -62 -47 -20 -25 -51 -28
-51 -4 0 15 -56 12 -70 -4 -6 -8 -24 -16 -38 -18 -21 -2 -28 -9 -30 -30 -3
-22 1 -27 24 -30 24 -3 29 -10 41 -58 8 -30 18 -75 22 -100 4 -25 13 -55 19
-67 19 -35 14 -57 -18 -75 -55 -31 -30 -72 26 -43 16 8 38 15 49 15 34 0 109
26 113 39 2 7 -10 17 -27 24 -21 8 -33 20 -37 37 -2 14 -11 45 -19 70 -8 25
-15 55 -15 68 0 13 -7 37 -16 53 -15 30 -15 31 21 65 38 35 70 43 97 22 19
-16 48 -90 48 -122 0 -13 7 -40 15 -59 22 -52 19 -92 -6 -109 -18 -12 -20 -17
-10 -35 10 -20 13 -21 39 -7 15 7 36 14 47 14 37 0 110 27 113 41 2 9 -10 18
-30 24 -22 7 -35 18 -40 35 -17 65 -30 118 -37 155 -5 22 -10 45 -12 50 -12
37 53 92 96 81 28 -7 65 -63 65 -98 0 -14 7 -45 15 -68 8 -23 15 -62 15 -85 0
-29 -5 -45 -15 -49 -14 -5 -21 -37 -10 -48 3 -3 25 1 48 8 23 7 67 20 97 27
36 9 56 19 58 30 3 12 -4 17 -22 17 -32 0 -66 50 -66 98 0 18 -7 49 -15 69 -8
19 -15 46 -15 59 0 37 -40 93 -81 114 -45 24 -35 24 -84 1z"/>
<path d="M7842 6764 c-28 -19 -30 -74 -4 -97 25 -23 68 -21 92 3 58 58 -20
142 -88 94z"/>
<path d="M8238 6654 c-141 -92 -132 -332 15 -403 55 -26 99 -27 153 0 54 26
118 101 109 129 -9 28 -21 25 -68 -15 -23 -20 -52 -38 -65 -42 -53 -13 -142
56 -142 111 0 26 6 29 75 39 31 5 74 19 133 43 40 17 42 43 6 90 -59 76 -144
96 -216 48z m104 -51 c20 -24 28 -48 20 -59 -4 -6 -33 -18 -64 -29 -72 -24
-86 -15 -68 42 7 21 17 44 23 51 14 18 71 15 89 -5z"/>
<path d="M7240 6610 c-29 -25 -31 -74 -4 -95 30 -22 80 -19 98 7 22 32 20 55
-9 83 -29 30 -54 32 -85 5z"/>
<path d="M7927 6579 c-14 -10 -33 -19 -44 -19 -21 -1 -63 -33 -63 -49 0 -6 11
-11 24 -11 32 0 66 -44 66 -85 0 -18 6 -48 14 -66 8 -19 17 -57 21 -86 6 -46
4 -53 -14 -65 -26 -16 -29 -58 -3 -58 9 0 26 7 36 15 11 8 30 15 43 15 43 0
115 22 120 37 7 19 -16 34 -39 27 -20 -6 -44 42 -58 116 -5 25 -13 63 -19 85
-6 22 -15 65 -21 97 -13 64 -28 75 -63 47z"/>
<path d="M7661 6533 c-37 -5 -71 -23 -113 -62 -24 -21 -28 -32 -28 -81 0 -46
4 -60 23 -77 33 -30 82 -53 115 -53 41 0 96 -40 100 -72 2 -20 -4 -31 -22 -43
-38 -25 -89 -12 -128 30 -56 63 -82 35 -42 -45 22 -44 29 -50 57 -51 118 -6
172 22 211 109 18 41 18 43 1 82 -19 42 -70 80 -109 80 -43 0 -117 32 -128 55
-32 71 83 99 128 30 18 -27 22 -29 42 -16 30 19 -26 125 -63 119 -5 0 -25 -3
-44 -5z"/>
<path d="M7330 6433 c0 -5 -25 -20 -55 -32 -58 -24 -74 -51 -30 -51 32 0 65
-51 65 -98 0 -18 5 -42 11 -53 5 -11 14 -46 19 -77 9 -53 8 -58 -15 -80 -49
-45 -27 -72 37 -44 24 11 65 22 93 26 51 6 82 26 71 45 -4 6 -18 11 -32 11
-20 0 -29 9 -44 43 -11 23 -20 55 -20 70 0 15 -7 44 -15 64 -8 19 -15 47 -15
62 0 14 -6 46 -14 71 -10 33 -19 46 -35 48 -11 2 -21 -1 -21 -5z"/>
<path d="M6360 6412 c-67 -21 -67 -111 0 -127 36 -9 80 27 80 64 0 39 -45 75
-80 63z"/>
<path d="M7100 6380 c-70 -16 -95 -27 -95 -41 0 -8 11 -16 25 -17 14 -2 29 -7
33 -11 13 -12 -4 -189 -20 -209 -13 -16 -14 -16 -26 1 -106 161 -110 171 -80
192 9 7 14 19 10 27 -5 14 -12 14 -64 1 -32 -8 -77 -17 -100 -20 -70 -9 -78
-45 -13 -55 17 -2 43 -27 82 -78 32 -41 64 -85 71 -97 7 -11 32 -51 56 -87 33
-50 49 -66 67 -66 20 0 24 5 24 33 0 17 5 50 11 72 9 36 29 149 46 258 4 26
15 45 34 59 51 38 21 56 -61 38z"/>
<path d="M6420 6215 c-7 -8 -18 -15 -25 -15 -15 0 -73 -29 -80 -40 -6 -10 14
-27 39 -31 20 -4 56 -87 56 -130 0 -15 7 -43 15 -62 22 -53 19 -90 -10 -117
-14 -13 -25 -27 -25 -32 0 -13 53 -9 80 7 14 8 46 14 73 15 34 0 53 6 67 20
25 25 18 40 -19 40 -36 0 -52 20 -61 73 -8 47 -24 116 -46 193 -8 28 -14 60
-14 72 0 26 -31 30 -50 7z"/>
<path d="M10460 6215 c-14 -8 -39 -14 -57 -15 -17 0 -44 -5 -60 -11 -15 -6
-53 -15 -83 -20 -76 -11 -156 -28 -216 -45 -28 -8 -63 -14 -78 -14 -15 0 -35
-4 -45 -10 -10 -5 -43 -13 -72 -18 -30 -5 -76 -15 -104 -22 -27 -6 -75 -18
-105 -25 -30 -7 -77 -19 -105 -25 -27 -7 -68 -16 -90 -21 -49 -10 -119 -27
-165 -42 -19 -6 -53 -14 -75 -18 -56 -11 -202 -49 -286 -75 -26 -8 -54 -14
-64 -14 -10 0 -38 -7 -64 -14 -25 -8 -73 -22 -106 -31 -33 -9 -73 -21 -90 -27
-16 -5 -46 -14 -65 -18 -84 -21 -127 -33 -158 -46 -18 -8 -43 -14 -55 -14 -12
-1 -33 -7 -47 -15 -14 -8 -35 -14 -47 -15 -12 0 -37 -6 -55 -14 -18 -8 -60
-22 -93 -31 -33 -10 -76 -23 -95 -30 -19 -7 -62 -20 -95 -30 -33 -9 -76 -23
-95 -30 -19 -7 -62 -21 -95 -30 -33 -10 -75 -24 -93 -31 -18 -8 -39 -14 -47
-14 -8 0 -29 -6 -47 -14 -18 -8 -60 -22 -93 -31 -33 -10 -76 -23 -95 -30 -19
-7 -62 -21 -95 -30 -33 -10 -76 -23 -95 -30 -19 -7 -62 -20 -95 -30 -33 -9
-71 -22 -85 -27 -14 -6 -41 -14 -60 -18 -19 -5 -51 -13 -70 -20 -80 -27 -97
-32 -130 -40 -19 -4 -51 -13 -70 -20 -85 -29 -175 -56 -230 -70 -19 -4 -50
-13 -67 -19 -18 -6 -48 -16 -65 -22 -18 -6 -49 -15 -68 -19 -19 -5 -66 -18
-105 -30 -38 -12 -86 -25 -105 -30 -19 -4 -48 -13 -65 -18 -16 -6 -57 -18 -90
-27 -33 -9 -73 -21 -90 -27 -16 -6 -48 -13 -70 -17 -22 -4 -50 -13 -62 -19
-12 -7 -34 -12 -48 -12 -14 0 -36 -5 -48 -12 -12 -6 -38 -15 -57 -20 -92 -20
-147 -36 -173 -46 -16 -7 -35 -12 -44 -12 -8 0 -36 -7 -62 -14 -25 -8 -73 -22
-106 -31 -33 -9 -73 -21 -90 -27 -16 -5 -46 -13 -66 -17 -19 -4 -42 -12 -49
-16 -8 -5 -32 -12 -55 -16 -22 -4 -53 -12 -70 -17 -16 -6 -57 -18 -90 -27 -33
-9 -73 -21 -90 -27 -16 -5 -46 -14 -65 -18 -19 -4 -48 -13 -65 -18 -16 -6 -57
-18 -90 -27 -33 -9 -73 -21 -90 -27 -16 -5 -46 -14 -65 -18 -19 -5 -66 -18
-105 -30 -38 -12 -86 -25 -105 -30 -19 -4 -50 -13 -67 -19 -18 -6 -48 -16 -65
-22 -18 -6 -49 -15 -68 -19 -19 -5 -57 -16 -85 -24 -27 -9 -70 -21 -95 -27
-25 -7 -59 -18 -77 -25 -17 -8 -41 -14 -53 -14 -12 0 -31 -5 -43 -12 -12 -6
-38 -15 -57 -19 -19 -4 -50 -12 -67 -18 -18 -6 -48 -16 -65 -22 -18 -6 -49
-15 -68 -19 -33 -8 -50 -13 -130 -40 -19 -7 -51 -16 -70 -20 -93 -23 -196 -54
-207 -63 -14 -10 -8 -52 10 -75 12 -15 50 -12 102 6 86 29 103 35 135 42 33 8
50 13 130 40 19 7 51 16 70 20 19 4 49 13 65 18 17 6 57 18 90 28 33 9 78 23
100 29 22 7 67 21 100 30 33 9 74 21 90 27 17 5 46 13 66 17 19 4 42 11 49 16
7 5 30 12 49 16 20 4 50 12 66 17 32 11 90 28 190 57 33 9 74 21 90 27 17 5
46 14 65 18 19 5 67 18 105 30 39 12 86 25 105 30 19 4 49 13 65 18 17 6 57
18 90 27 33 9 74 21 90 27 17 5 46 14 65 18 84 21 127 33 158 46 18 8 40 14
48 14 9 0 37 7 63 14 25 8 73 22 106 31 33 9 74 21 90 27 17 5 46 13 65 17 19
4 51 13 70 19 34 10 104 30 208 58 91 24 166 45 202 57 19 6 51 14 70 18 19 4
49 12 65 17 17 6 57 18 90 27 33 9 74 21 90 27 17 5 46 14 65 18 19 4 50 13
68 19 17 6 47 16 65 22 17 6 48 15 67 19 19 5 58 16 85 24 28 9 70 21 95 27
25 6 57 18 72 25 14 8 36 14 48 14 12 0 31 5 43 12 12 6 38 15 57 19 19 4 49
12 65 17 17 6 57 18 90 28 33 9 76 22 95 29 19 7 62 21 95 30 33 10 71 22 85
28 14 5 41 13 60 17 38 9 86 25 138 46 18 8 43 14 55 14 13 0 32 7 43 15 10 8
29 15 41 15 12 0 37 6 55 14 51 21 99 37 138 46 39 9 87 25 138 46 18 8 41 14
52 14 11 0 34 6 52 14 52 21 100 37 138 46 19 4 46 12 60 18 14 5 52 18 85 27
33 10 75 24 93 31 18 8 40 14 48 14 15 0 67 15 149 42 17 5 46 14 65 18 84 21
127 33 158 46 18 8 42 14 53 14 12 0 44 7 73 16 104 33 122 38 161 45 51 10
122 28 160 41 17 6 48 13 70 18 38 6 57 11 165 41 25 7 63 16 85 20 22 4 60
13 85 19 25 6 63 16 85 21 22 6 63 14 92 19 28 4 58 12 65 16 7 5 33 11 58 15
25 3 66 11 93 18 26 6 68 16 95 22 26 7 70 15 97 19 28 5 63 13 78 19 16 6 43
11 60 11 18 0 54 7 81 15 27 8 69 15 93 15 52 0 60 12 47 73 -10 46 -26 54
-64 32z"/>
<path d="M5682 6182 c-6 -5 -23 -24 -37 -42 -22 -29 -25 -41 -19 -77 5 -34 3
-43 -9 -43 -8 0 -22 -11 -31 -25 -19 -29 -9 -38 40 -33 26 3 29 0 35 -37 6
-42 20 -101 46 -195 23 -87 49 -107 129 -102 31 3 99 65 91 85 -5 13 -12 14
-41 6 -22 -6 -42 -6 -53 -1 -17 10 -53 110 -53 150 0 13 -7 37 -16 53 -8 17
-14 42 -12 57 3 23 8 27 40 30 46 4 64 23 48 51 -10 20 -12 20 -41 5 -17 -8
-40 -14 -52 -12 -19 3 -23 11 -27 67 -5 64 -13 78 -38 63z"/>
<path d="M6010 6108 c-66 -45 -103 -93 -96 -122 7 -27 35 -41 65 -31 13 4 23
23 32 63 14 55 15 57 50 60 32 3 39 -1 58 -31 11 -19 21 -42 21 -50 0 -9 -30
-37 -67 -62 -117 -78 -116 -77 -115 -131 0 -44 4 -52 38 -81 29 -26 46 -33 80
-33 36 0 47 5 73 35 25 29 36 34 56 29 14 -3 28 -10 31 -15 9 -16 35 -10 75
19 23 16 39 35 39 48 0 28 -9 35 -31 24 -14 -8 -22 -4 -38 16 -12 15 -21 38
-21 52 0 14 -7 48 -15 76 -8 28 -17 63 -19 77 -3 15 -20 40 -38 58 -27 27 -39
31 -82 31 -40 -1 -61 -8 -96 -32z m155 -197 c8 -26 11 -118 4 -125 -3 -3 -19
-9 -37 -12 -25 -5 -35 -1 -56 21 -34 36 -33 50 7 95 35 42 72 51 82 21z"/>
<path d="M5334 5948 c-16 -12 -33 -28 -37 -35 -11 -19 -30 -16 -50 7 -17 20
-17 20 -74 -11 -32 -17 -64 -37 -72 -45 -13 -11 -12 -14 5 -19 54 -17 69 -31
75 -70 8 -49 26 -125 45 -185 8 -25 14 -57 14 -71 0 -15 6 -42 14 -60 7 -19
16 -53 19 -77 5 -39 2 -45 -24 -64 -57 -42 -24 -70 46 -38 24 11 59 20 78 20
44 0 107 26 107 45 0 9 -14 15 -42 17 -38 3 -45 7 -59 38 -25 51 -33 109 -17
114 93 25 137 56 186 131 22 34 26 51 26 121 0 72 -3 84 -30 125 -51 77 -149
104 -210 57z m72 -75 c50 -32 74 -85 74 -163 0 -62 -3 -73 -27 -100 -36 -39
-84 -49 -110 -23 -10 10 -24 46 -31 78 -7 33 -19 81 -27 106 -21 66 -19 77 18
99 39 24 70 25 103 3z"/>
<path d="M4858 5850 c-67 -36 -126 -134 -127 -212 -1 -67 49 -155 110 -194 59
-37 129 -33 192 10 70 48 113 126 69 126 -10 0 -36 -16 -58 -35 -53 -48 -104
-49 -155 -2 -68 60 -61 101 18 113 25 4 58 13 72 20 14 8 35 14 47 14 11 0 29
9 39 20 15 17 16 23 5 52 -16 40 -42 66 -89 90 -45 23 -76 22 -123 -2z m91
-66 c34 -43 27 -58 -32 -77 -30 -9 -64 -17 -77 -17 -20 0 -22 4 -16 31 16 83
83 116 125 63z"/>
<path d="M4485 5762 c-92 -48 -145 -134 -145 -233 1 -56 5 -70 33 -112 43 -62
90 -87 165 -87 50 0 66 5 101 30 40 30 81 83 81 106 0 28 -33 22 -67 -11 -31
-30 -43 -35 -83 -35 -39 0 -51 5 -77 33 -54 57 -63 78 -63 140 0 51 4 62 29
88 32 32 62 36 101 14 40 -23 69 -19 81 11 7 20 6 32 -6 50 -13 21 -23 24 -68
23 -28 -1 -65 -8 -82 -17z"/>
<path d="M3490 5711 c-22 -13 -183 -51 -215 -51 -23 0 -26 -4 -23 -27 3 -25 7
-28 40 -28 20 0 40 -4 44 -8 9 -9 29 -76 43 -147 11 -49 25 -108 46 -185 33
-119 29 -141 -29 -170 -11 -6 -21 -17 -21 -25 0 -23 46 -23 104 -1 28 12 68
21 89 21 45 0 86 19 90 43 3 14 -4 17 -35 17 -21 0 -43 4 -48 8 -15 11 -45
111 -48 157 -2 38 -1 40 31 43 30 3 41 -5 120 -86 98 -100 135 -117 227 -104
63 9 66 29 7 57 -45 21 -207 157 -223 187 -7 13 -4 22 12 35 32 27 69 90 69
118 0 38 -35 100 -73 129 -30 23 -43 26 -113 26 -43 0 -86 -5 -94 -9z m104
-66 c36 -28 56 -69 56 -118 0 -58 -20 -92 -71 -118 -66 -33 -72 -29 -93 64
-10 45 -23 99 -29 119 -14 52 1 68 67 68 29 0 59 -7 70 -15z"/>
<path d="M4030 5642 c-160 -109 -139 -345 36 -416 46 -19 48 -19 101 -1 40 14
66 32 99 68 25 28 43 57 42 66 -5 25 -35 24 -60 -1 -53 -53 -105 -61 -159 -25
-43 28 -78 95 -58 108 8 5 24 9 37 9 23 0 118 30 167 52 23 10 26 17 22 45 -7
40 -32 75 -70 97 -38 21 -124 20 -157 -2z m103 -55 c25 -38 28 -49 16 -63 -6
-8 -20 -14 -31 -14 -10 0 -33 -7 -49 -16 -40 -20 -59 -12 -59 26 0 46 51 95
88 85 15 -4 30 -12 35 -18z"/>
<path d="M3705 7593 c-33 -8 -80 -19 -105 -25 -25 -6 -58 -13 -75 -15 -16 -2
-52 -10 -80 -18 -27 -7 -75 -20 -105 -29 -125 -33 -177 -48 -221 -62 -26 -7
-56 -14 -67 -14 -11 0 -36 -7 -55 -15 -20 -8 -49 -15 -65 -15 -15 0 -37 -6
-47 -14 -17 -13 -18 -17 -5 -55 7 -23 18 -45 23 -48 5 -3 25 1 45 10 40 16
111 36 320 93 31 8 78 22 103 30 26 7 54 14 64 14 10 0 38 6 64 14 83 26 135
37 218 46 45 4 87 11 93 15 13 8 13 46 0 79 -11 29 -18 30 -105 9z"/>
<path d="M1775 5264 c-22 -9 -60 -19 -85 -24 -25 -4 -70 -13 -100 -19 -131
-25 -252 -41 -352 -47 l-108 -6 0 -55 0 -55 43 5 c138 16 239 29 287 38 30 6
84 14 120 19 36 5 81 13 100 19 19 6 45 11 58 11 13 0 49 7 79 16 l55 16 -7
36 c-7 40 -21 62 -39 62 -6 -1 -29 -8 -51 -16z"/>
<path d="M3915 6995 c-16 -8 -41 -14 -54 -15 -13 0 -47 -6 -75 -14 -91 -25
-140 -37 -186 -45 -25 -5 -67 -14 -95 -21 -27 -6 -75 -18 -105 -25 -30 -7 -77
-19 -105 -25 -27 -7 -70 -16 -95 -20 -25 -4 -63 -12 -85 -17 -38 -11 -122 -28
-248 -53 l-58 -12 3 -46 c4 -56 17 -62 92 -39 28 9 87 23 131 32 44 9 98 22
120 28 22 5 60 13 85 17 48 8 112 23 196 46 28 8 62 14 77 14 14 0 38 5 54 11
15 7 48 15 73 19 25 4 68 13 95 20 118 29 163 39 218 50 64 13 72 23 63 75 -6
32 -10 35 -39 34 -18 0 -45 -7 -62 -14z"/>
<path d="M12135 4799 c-49 -4 -130 -7 -180 -8 -49 -1 -125 -8 -168 -16 -43 -8
-100 -15 -125 -15 -26 0 -64 -5 -85 -11 -21 -6 -69 -14 -105 -19 -77 -9 -172
-27 -219 -41 -18 -6 -54 -14 -80 -19 -27 -5 -68 -14 -93 -20 -89 -23 -156 -42
-185 -52 -16 -5 -46 -13 -66 -17 -19 -4 -42 -11 -49 -16 -7 -5 -30 -12 -49
-16 -20 -4 -52 -12 -71 -19 -80 -27 -97 -32 -130 -40 -19 -4 -48 -13 -65 -18
-31 -11 -116 -35 -200 -57 -27 -7 -75 -20 -105 -28 -95 -26 -153 -40 -200 -47
-70 -12 -159 -30 -227 -46 -34 -8 -79 -14 -100 -14 -21 0 -54 -5 -73 -10 -35
-11 -167 -26 -312 -37 -91 -7 -104 -16 -91 -70 l9 -38 75 3 c40 2 105 10 142
18 38 8 87 14 110 14 23 1 69 7 102 15 33 8 79 15 102 15 23 0 54 5 70 11 15
6 53 15 83 19 70 10 161 28 225 45 82 22 139 36 165 41 30 6 124 32 165 46 17
5 46 14 65 18 55 14 136 38 233 71 17 6 48 15 67 19 19 4 49 13 65 18 17 6 57
18 90 27 33 9 80 23 105 31 25 8 53 14 64 14 10 0 39 6 65 14 66 21 139 38
196 46 28 4 75 13 105 19 129 25 238 41 280 41 25 0 86 7 135 15 53 9 156 15
251 15 174 0 174 0 174 55 0 59 3 58 -165 44z"/>
<path d="M10174 5410 c-5 -5 -30 -14 -54 -19 -25 -5 -58 -14 -75 -19 -82 -27
-134 -42 -149 -42 -8 0 -30 -6 -48 -14 -18 -8 -60 -22 -93 -31 -33 -10 -73
-23 -90 -30 -44 -18 -96 -36 -133 -45 -18 -4 -38 -12 -45 -18 -7 -5 -23 -12
-37 -15 -28 -6 -78 -23 -127 -44 -20 -8 -33 -21 -33 -31 0 -24 22 -71 36 -76
10 -4 56 15 126 50 14 8 35 14 45 14 10 0 24 5 30 11 6 6 26 14 44 19 46 11
98 30 131 46 14 8 37 14 50 14 12 1 34 7 48 15 14 8 35 14 47 15 12 0 34 6 50
14 15 8 48 19 73 26 159 40 193 49 235 57 47 9 56 33 30 82 -15 31 -42 40 -61
21z"/>
<path d="M5073 4168 c-6 -7 -13 -24 -16 -38 -5 -27 -23 -77 -43 -125 -7 -16
-20 -50 -29 -75 -35 -89 -122 -271 -164 -341 -11 -19 -25 -43 -31 -54 -6 -11
-19 -33 -30 -50 -11 -16 -23 -37 -27 -45 -3 -8 -19 -31 -35 -51 -15 -20 -28
-42 -28 -48 0 -7 -7 -14 -15 -17 -8 -4 -15 -11 -15 -16 0 -42 -375 -451 -472
-515 -32 -22 -36 -28 -26 -42 28 -38 52 -61 62 -61 14 1 244 225 329 321 64
72 227 283 227 293 0 3 19 33 43 68 24 35 46 70 50 78 4 8 16 29 26 45 31 47
181 349 181 362 0 6 6 24 14 40 8 15 22 48 31 73 9 25 23 59 30 75 44 104 44
111 8 119 -16 4 -35 9 -44 12 -9 2 -21 -1 -26 -8z"/>
<path d="M6296 2231 c-8 -12 -115 -62 -203 -95 -103 -39 -121 -45 -178 -61
-33 -9 -80 -23 -105 -31 -25 -8 -55 -14 -67 -14 -12 0 -48 -7 -80 -15 -31 -8
-74 -15 -95 -15 -37 0 -38 -1 -38 -36 0 -62 12 -73 67 -62 171 33 218 44 358
84 96 27 233 79 318 120 16 8 34 14 41 14 8 0 25 9 39 20 25 20 26 21 9 53
-24 45 -52 61 -66 38z"/>
<path d="M2958 1332 c-21 -42 -53 -104 -73 -137 -19 -33 -39 -69 -45 -80 -21
-39 -36 -63 -50 -80 -12 -15 -11 -19 10 -36 29 -22 65 -34 79 -25 8 5 32 51
55 106 3 8 15 29 26 45 10 17 31 53 45 80 14 28 35 64 45 80 46 70 47 75 17
101 -49 42 -67 32 -109 -54z"/>
<path d="M6667 1698 c-10 -24 -17 -53 -17 -64 0 -11 -7 -29 -15 -40 -8 -10
-15 -27 -15 -36 0 -16 -6 -33 -45 -123 -45 -104 -93 -192 -136 -248 -36 -47
-138 -147 -150 -147 -5 0 -28 -13 -52 -30 -25 -16 -50 -30 -56 -30 -7 0 -23
-7 -36 -16 -17 -11 -51 -16 -120 -17 -105 -2 -111 -6 -103 -73 3 -26 7 -29 43
-32 46 -4 164 14 215 33 60 23 64 25 113 54 105 60 215 174 290 300 32 54 86
166 98 201 4 14 17 50 29 80 12 30 25 70 30 89 5 18 13 38 19 44 12 12 15 73
3 81 -4 2 -23 7 -43 11 -35 6 -36 6 -52 -37z"/>
<path d="M2642 12354 c-26 -18 -29 -56 -5 -75 14 -12 79 -106 118 -171 55 -91
91 -144 102 -151 7 -4 13 -14 13 -21 0 -7 44 -80 98 -162 92 -138 122 -187
178 -282 32 -54 46 -60 82 -31 39 30 39 42 3 88 -15 20 -67 97 -115 171 -48
74 -96 147 -107 162 -10 15 -19 29 -19 32 0 3 -13 24 -29 48 -15 24 -49 76
-75 116 -25 39 -66 103 -90 141 -25 37 -55 87 -66 110 -24 45 -49 53 -88 25z"/>
<path d="M11243 10663 c-565 -564 -862 -868 -1113 -1138 -41 -44 -77 -82 -80
-85 -3 -3 -89 -95 -192 -205 -102 -110 -196 -208 -207 -217 -12 -10 -21 -25
-21 -33 0 -18 44 -65 60 -65 12 0 36 24 85 82 17 20 53 60 81 90 27 29 76 82
109 118 89 99 417 445 700 739 336 349 1163 1168 1243 1229 24 19 42 42 42 53
0 20 -41 69 -58 69 -6 0 -297 -287 -649 -637z"/>
<path d="M1272 11014 c-26 -30 -22 -55 13 -78 25 -17 193 -159 340 -291 96
-85 108 -95 305 -269 240 -211 396 -349 475 -421 128 -115 354 -317 404 -360
25 -22 67 -62 92 -89 45 -48 47 -49 70 -34 13 8 31 28 39 43 14 26 13 28 -15
49 -29 20 -175 144 -185 156 -3 4 -43 40 -90 81 -47 40 -90 78 -96 84 -6 5
-46 42 -89 80 -43 39 -86 77 -95 85 -9 8 -49 44 -90 80 -41 36 -77 68 -80 71
-3 3 -43 39 -90 79 -47 41 -87 77 -90 80 -6 7 -300 266 -414 365 -187 161
-324 287 -330 300 -9 23 -49 17 -74 -11z"/>
<path d="M5288 10534 c-33 -18 -34 -28 -7 -73 42 -68 639 -1276 660 -1334 18
-52 29 -59 75 -49 49 10 53 31 19 92 -14 25 -79 153 -145 285 -66 132 -124
247 -129 255 -5 8 -22 44 -39 80 -17 36 -105 215 -196 399 -92 184 -166 341
-166 348 0 17 -38 16 -72 -3z"/>
<path d="M7013 10003 c-3 -10 -56 -100 -117 -201 -61 -100 -116 -190 -121
-200 -6 -9 -23 -36 -38 -59 -15 -24 -27 -45 -27 -47 0 -3 -12 -24 -27 -48 -16
-24 -34 -52 -40 -63 -7 -11 -45 -73 -85 -138 -40 -65 -81 -130 -90 -145 -9
-15 -23 -37 -30 -49 -7 -13 -53 -88 -103 -168 -49 -80 -94 -154 -100 -163 -5
-10 -25 -36 -42 -59 -39 -49 -40 -53 -10 -81 41 -39 66 -33 96 23 14 28 45 82
69 120 24 39 48 79 55 90 7 11 30 49 52 85 22 36 45 74 52 85 65 108 105 172
148 240 28 44 54 87 58 95 4 8 22 38 40 67 18 29 79 129 137 223 58 94 113
183 122 198 10 15 21 34 24 42 4 8 22 34 41 57 37 47 41 72 15 96 -25 23 -71
22 -79 0z"/>
<path d="M11710 9609 c-30 -21 -73 -48 -95 -60 -22 -12 -59 -34 -83 -50 -24
-16 -45 -29 -47 -29 -4 0 -244 -140 -275 -160 -8 -6 -24 -15 -35 -20 -11 -6
-33 -19 -50 -30 -16 -11 -37 -23 -45 -27 -23 -10 -180 -103 -221 -130 -19 -12
-39 -23 -44 -23 -5 0 -16 -6 -24 -14 -9 -8 -50 -32 -91 -53 -84 -45 -100 -73
-60 -113 24 -24 50 -20 92 15 15 12 77 51 138 86 61 35 122 71 135 79 13 8 75
45 137 81 62 36 187 110 278 164 191 113 244 144 320 185 90 48 95 54 80 90
-11 26 -40 53 -52 49 -2 -1 -28 -18 -58 -40z"/>
<path d="M1959 9353 c-5 -16 -11 -33 -14 -40 -3 -9 126 -95 255 -168 10 -6 35
-22 56 -36 22 -13 48 -30 59 -36 11 -7 72 -43 135 -82 123 -74 170 -102 210
-124 14 -7 88 -49 165 -93 77 -44 147 -83 155 -87 8 -4 31 -17 50 -28 19 -12
82 -47 140 -77 58 -30 124 -68 148 -83 57 -38 87 -38 107 1 21 41 8 63 -52 85
-26 9 -68 29 -93 44 -58 34 -76 44 -168 92 -42 22 -93 50 -112 61 -19 11 -55
31 -80 45 -25 13 -52 28 -60 33 -8 5 -50 29 -93 54 -43 25 -81 46 -84 46 -4 0
-14 6 -22 14 -9 7 -43 28 -76 46 -33 18 -67 39 -76 46 -8 8 -20 14 -26 14 -5
0 -23 11 -39 25 -16 14 -33 25 -38 25 -4 0 -63 34 -130 76 -182 115 -221 141
-235 158 -8 9 -27 16 -42 16 -23 0 -32 -6 -40 -27z"/>
<path d="M13395 9316 c-20 -13 -360 -186 -406 -206 -13 -5 -31 -14 -39 -19 -8
-6 -235 -118 -505 -251 -269 -133 -497 -245 -505 -250 -35 -21 -277 -138 -298
-144 -33 -11 -42 -36 -27 -74 17 -39 47 -42 96 -9 28 19 1225 618 1354 678 22
10 47 23 55 28 8 5 86 44 173 87 87 43 163 84 168 91 13 15 3 64 -14 75 -17
11 -30 10 -52 -6z"/>
<path d="M581 8983 c-8 -28 -8 -40 2 -48 6 -6 75 -38 152 -70 77 -32 149 -64
160 -72 11 -7 25 -13 32 -13 7 0 42 -13 76 -30 35 -16 67 -30 70 -30 4 0 35
-13 69 -29 63 -28 155 -66 298 -123 41 -17 89 -36 105 -43 36 -16 272 -108
383 -149 20 -8 73 -28 118 -45 44 -17 85 -31 90 -31 5 0 31 -11 58 -25 27 -14
55 -25 61 -25 18 0 51 78 38 91 -6 6 -57 26 -114 45 -57 19 -121 41 -141 49
-39 15 -95 37 -158 60 -67 25 -195 76 -227 91 -17 8 -40 14 -51 14 -12 0 -23
4 -26 9 -3 5 -32 19 -63 31 -32 12 -71 28 -88 35 -55 23 -79 34 -135 56 -30
11 -68 27 -85 34 -52 21 -172 74 -196 86 -9 4 -61 26 -115 49 -54 23 -103 45
-109 49 -5 4 -31 15 -57 25 -25 9 -52 24 -58 32 -7 7 -27 14 -46 14 -30 0 -34
-4 -43 -37z"/>
<path d="M1669 3986 c-24 -18 -63 -44 -86 -57 -34 -20 -263 -159 -358 -219
-30 -19 -503 -307 -530 -323 -11 -7 -39 -24 -63 -39 -24 -16 -46 -28 -51 -28
-4 0 -25 -13 -47 -29 -21 -15 -58 -36 -81 -46 -38 -17 -43 -23 -43 -50 0 -30
25 -65 46 -65 8 0 40 20 162 101 23 16 46 29 51 29 4 0 26 12 47 28 21 15 50
33 64 40 14 7 44 25 67 40 64 41 428 263 476 291 23 13 67 40 97 59 52 33 100
63 145 89 11 7 54 32 95 57 41 25 83 48 93 51 10 5 17 17 17 34 0 31 -8 44
-36 59 -19 10 -28 7 -65 -22z"/>
<path d="M11920 3868 c-30 -49 -26 -65 18 -73 20 -4 42 -10 47 -14 6 -4 37
-15 70 -25 33 -10 87 -29 120 -42 33 -12 94 -34 135 -48 41 -14 120 -41 175
-61 55 -20 132 -47 170 -60 39 -13 115 -40 170 -60 55 -20 111 -40 125 -45 14
-4 40 -16 58 -25 39 -20 59 -15 72 20 19 50 13 60 -47 79 -32 10 -69 23 -83
28 -14 6 -38 14 -55 18 -16 5 -55 18 -85 30 -30 12 -86 32 -125 45 -129 44
-250 86 -265 92 -27 11 -175 64 -205 73 -69 20 -198 71 -218 85 -33 23 -55 18
-77 -17z"/>
<path d="M10506 3488 c-27 -39 -20 -64 27 -91 23 -14 53 -37 66 -51 14 -14 29
-26 34 -26 5 0 37 -24 70 -53 34 -30 82 -67 107 -84 25 -17 75 -55 111 -84 36
-30 128 -99 204 -154 75 -55 152 -115 171 -132 37 -37 63 -41 86 -15 40 44 34
58 -49 113 -78 52 -392 286 -489 363 -28 23 -68 55 -90 71 -21 17 -74 60 -117
98 -43 37 -87 67 -97 67 -11 0 -26 -10 -34 -22z"/>
<path d="M2489 3135 c-13 -14 -53 -49 -88 -76 -35 -28 -73 -59 -85 -69 -11
-10 -42 -35 -67 -56 -25 -22 -63 -53 -85 -71 -21 -18 -113 -94 -204 -168 -91
-75 -181 -149 -200 -165 -19 -16 -93 -77 -165 -135 -71 -58 -141 -116 -155
-129 -14 -12 -42 -32 -62 -45 -42 -25 -47 -45 -20 -77 26 -31 58 -38 74 -17
15 20 82 81 147 133 24 19 126 103 225 185 100 83 217 179 261 215 44 36 96
78 115 95 20 16 56 46 80 67 25 20 90 73 145 118 55 46 117 94 138 108 36 24
41 32 38 62 -2 18 -38 50 -56 50 -7 0 -23 -11 -36 -25z"/>
<path d="M9872 3127 c-12 -13 -22 -29 -22 -36 0 -7 24 -36 53 -65 70 -70 156
-161 317 -336 154 -166 217 -234 279 -299 25 -25 67 -71 94 -101 28 -30 107
-116 177 -190 69 -74 150 -162 180 -195 30 -32 92 -98 136 -145 45 -47 94 -98
108 -115 15 -16 51 -55 80 -85 29 -30 62 -70 75 -88 28 -41 64 -40 94 0 l21
28 -85 87 c-46 49 -143 151 -214 228 -72 77 -166 178 -210 225 -44 47 -138
148 -210 225 -71 77 -166 178 -210 225 -44 47 -132 141 -195 209 -63 69 -154
165 -201 215 -78 83 -146 159 -191 215 -23 27 -49 27 -76 -2z"/>
<path d="M7833 3105 c-28 -20 -29 -44 -3 -95 11 -22 20 -46 20 -54 0 -9 6 -30
14 -48 8 -18 49 -141 91 -273 42 -132 83 -256 90 -275 22 -63 36 -104 56 -170
11 -36 25 -74 31 -85 6 -11 15 -36 19 -55 5 -19 24 -80 44 -135 20 -55 47
-131 60 -170 38 -109 81 -231 120 -340 20 -55 47 -131 60 -170 13 -38 34 -95
45 -125 12 -30 25 -70 30 -88 4 -18 12 -38 17 -45 5 -7 24 -57 43 -112 18 -55
39 -109 47 -120 7 -11 13 -29 13 -40 1 -11 9 -38 20 -60 11 -22 19 -44 20 -48
0 -5 19 -56 41 -115 48 -124 123 -319 145 -377 37 -95 47 -105 97 -86 33 13
33 26 4 93 -13 29 -32 73 -41 98 -10 25 -23 56 -28 70 -6 14 -14 36 -18 50 -5
14 -18 50 -30 80 -12 30 -25 66 -30 80 -5 14 -18 50 -30 80 -12 30 -25 66 -30
80 -5 14 -18 50 -30 80 -11 30 -30 82 -42 115 -11 33 -27 69 -34 80 -8 11 -14
30 -14 43 0 13 -5 32 -11 43 -11 21 -55 138 -94 254 -13 39 -38 108 -56 155
-17 47 -37 103 -45 125 -7 22 -29 85 -49 140 -20 55 -40 114 -45 130 -5 17
-32 95 -60 175 -28 80 -60 174 -71 210 -11 36 -26 77 -34 92 -8 14 -15 36 -15
48 0 12 -5 30 -11 41 -6 11 -21 55 -34 97 -28 90 -72 222 -90 272 -16 41 -78
244 -98 315 -11 41 -18 51 -38 53 -13 1 -34 -4 -46 -13z"/>
<path d="M9710 1312 c-26 -21 -23 -58 8 -88 9 -9 28 -36 42 -60 14 -23 45 -75
70 -114 25 -40 50 -80 55 -89 29 -47 76 -114 125 -181 71 -96 78 -107 118
-168 36 -56 60 -65 100 -36 34 23 27 51 -29 112 -28 31 -62 72 -75 92 -14 19
-44 63 -69 98 -25 35 -45 66 -45 69 0 3 -13 22 -28 42 -38 48 -182 285 -182
299 0 17 -30 42 -50 42 -10 0 -28 -8 -40 -18z"/>
<path d="M4492 1273 c-5 -10 -17 -42 -26 -70 -10 -29 -22 -55 -27 -58 -5 -4
-9 -12 -9 -20 0 -12 -31 -84 -99 -230 -50 -106 -71 -154 -71 -162 0 -4 -7 -21
-16 -38 -9 -16 -27 -56 -40 -87 -13 -32 -35 -81 -48 -110 -13 -29 -50 -111
-81 -183 -32 -72 -68 -150 -81 -175 -21 -38 -22 -47 -10 -65 8 -12 27 -21 48
-23 33 -3 36 -1 53 45 9 26 30 76 46 111 16 34 29 64 29 67 0 3 14 35 31 72
17 38 37 82 44 98 7 17 27 58 44 93 17 35 31 71 31 79 0 9 6 24 14 32 7 9 21
39 31 66 10 28 22 55 26 60 4 6 32 69 62 140 61 143 102 232 117 255 38 58 34
93 -12 109 -41 15 -46 14 -56 -6z"/>
<path d="M7618 1236 c-47 -12 -52 -26 -34 -90 8 -28 24 -123 36 -211 12 -88
28 -182 36 -209 8 -27 14 -68 14 -90 0 -23 5 -57 10 -76 6 -19 22 -91 35 -160
14 -69 30 -143 35 -165 6 -22 17 -75 26 -118 17 -82 22 -87 82 -71 18 5 22 13
22 43 -1 20 -7 47 -15 61 -8 14 -14 40 -15 59 0 19 -6 57 -14 85 -17 58 -38
158 -61 291 -9 50 -22 119 -30 155 -7 36 -21 124 -30 195 -9 72 -21 149 -26
172 -5 23 -9 57 -9 76 0 51 -17 65 -62 53z"/>
</g>
</svg>
